/* XPM */
static char *result[] = {
/* columns rows colors chars-per-pixel */
"64 64 112 2 ",
"   c #020202",
".  c #0B0202",
"X  c #070909",
"o  c #0A0B0B",
"O  c #130000",
"+  c #1B0000",
"@  c #1E0E0E",
"#  c #0E1111",
"$  c #131313",
"%  c #1C1111",
"&  c #161818",
"*  c #1B1C1C",
"=  c #240101",
"-  c #2B0000",
";  c #240D0D",
":  c #2B0C0C",
">  c #320101",
",  c #3C0202",
"<  c #330A0A",
"1  c #3C0909",
"2  c #211010",
"3  c #1E2121",
"4  c #232323",
"5  c #2C2C2C",
"6  c #2E3131",
"7  c #333434",
"8  c #373838",
"9  c #3C3C3C",
"0  c #450404",
"q  c #4B0505",
"w  c #470808",
"e  c #530202",
"r  c #5B0404",
"t  c #510808",
"y  c #640101",
"u  c #6B0101",
"i  c #750101",
"p  c #7C0101",
"a  c #444444",
"s  c #474A4A",
"d  c #4C4C4C",
"f  c #4F5151",
"g  c #525252",
"h  c #5A5A5A",
"j  c #656565",
"k  c #676868",
"l  c #6C6C6C",
"z  c #757575",
"x  c #7B7B7B",
"c  c #830000",
"v  c #8A0101",
"b  c #940000",
"n  c #9D0000",
"m  c #A30000",
"M  c #AC0000",
"N  c #B30000",
"B  c #BC0000",
"V  c #C40000",
"C  c #CA0000",
"Z  c #D40000",
"A  c #DC0000",
"S  c #E50000",
"D  c #ED0000",
"F  c #F40000",
"G  c #FF0000",
"H  c #FF0B0B",
"J  c #FF1414",
"K  c #FF1D1D",
"L  c #FF2424",
"P  c #FF2B2B",
"I  c #FF3333",
"U  c #FF3B3B",
"Y  c #FF4545",
"T  c #FF4D4D",
"R  c #FF5656",
"E  c #FF5C5C",
"W  c #FF6565",
"Q  c #FF6C6C",
"!  c #FF7474",
"~  c #FF7C7C",
"^  c #858585",
"/  c #8C8C8C",
"(  c #949494",
")  c #9A9A9A",
"_  c #A2A2A2",
"`  c #ACACAC",
"'  c #B4B4B4",
"]  c #B9B9B9",
"[  c #FF8383",
"{  c #FF8B8B",
"}  c #FF9292",
"|  c #FF9A9A",
" . c #FFA2A2",
".. c #FFA9A9",
"X. c #FFB1B1",
"o. c #FFB9B9",
"O. c #C4C4C4",
"+. c #CBCBCB",
"@. c #D2D2D2",
"#. c #DDDDDD",
"$. c #FFC1C1",
"%. c #FFCBCB",
"&. c #FFD6D6",
"*. c #FFDDDD",
"=. c gray89",
"-. c #ECECEC",
";. c #FFE5E5",
":. c #FFEDED",
">. c #F3F3F3",
",. c #FFF3F3",
"<. c #FFFFFF",
"1. c None",
/* pixels */
"1.1.1.1.1.1.1.1.1.1.1.1.1.1.1.1.1.1.1.1.1.1.1.1.1.$ ; 1 w e r y y r e w < ; $ 1.1.1.1.1.1.1.1.1.1.1.1.1.1.1.1.1.1.1.1.1.1.1.1.1.",
"1.1.1.1.1.1.1.1.1.1.1.1.1.1.1.1.1.1.1.1.1.1.; q p m V A D F G H G F F D A V n i w ; 1.1.1.1.1.1.1.1.1.1.1.1.1.1.1.1.1.1.1.1.1.1.",
"1.1.1.1.1.1.1.1.1.1.1.1.1.1.1.1.1.1.1.@ q v C D H P T ! { | ..X.X. .| [ Q Y P H D V c 0 % 1.1.1.1.1.1.1.1.1.1.1.1.1.1.1.1.1.1.1.",
"1.1.1.1.1.1.1.1.1.1.1.1.1.1.1.1.1.2 r N D J T { $.*.,.,.,.<.<.<.<.<.<.,.,.,.*.o.{ Y J D M r 2 1.1.1.1.1.1.1.1.1.1.1.1.1.1.1.1.1.",
"1.1.1.1.1.1.1.1.1.1.1.1.1.1.1.% r N F P ~ $.;.,.,.,.:.:.:.,.:.:.:.:.,.:.:.:.:.,.:.;.$.~ I F M e % 1.1.1.1.1.1.1.1.1.1.1.1.1.1.1.",
"1.1.1.1.1.1.1.1.1.1.1.1.1.1.1 n F L [ &.:.:.;.;.;.;.;.;.;.;.;.;.:.;.;.;.;.:.;.;.:.;.:.:.&.{ P D b < 1.1.1.1.1.1.1.1.1.1.1.1.1.1.",
"1.1.1.1.1.1.1.1.1.1.1.1.% r Z H W $.;.*.*.*.*.*.*.*.*.*.*.*.*.*.*.*.*.*.*.*.*.*.*.*.*.*.*.;.$.! J C r 1.1.1.1.1.1.1.1.1.1.1.1.1.",
"1.1.1.1.1.1.1.1.1.1.1.2 v F P | &.*.&.&.&.&.&.&.&.*.&.&.*.&.&.&.&.&.&.&.&.&.&.*.&.&.&.&.&.&.*.*. .U D p @ 1.1.1.1.1.1.1.1.1.1.1.",
"1.1.1.1.1.1.1.1.1.1.: m G T o.&.&.%.&.%.&.%.%.&.%.&.%.&.&.%.&.%.%.&.%.&.&.%.&.%.&.%.&.%.%.%.&.%.&.$.R G b : 1.1.1.1.1.1.1.1.1.1.",
"1.1.1.1.1.1.1.1.1.< N G R o.%.$.$.%.$.%.%.$.%.%.%.$.%.$.$.%.$.%.%.$.%.$.$.%.$.%.$.%.%.$.%.%.$.%.$.%.$.Q H m ; 1.1.1.1.1.1.1.1.1.",
"1.1.1.1.1.1.1.1.: N G E o.$.$.$.$.$.$.o.$.$.$.o.o.$.$.$.$.$.o.$.$.$.$.o.$.$.$.o.o.$.$.$.o.$.$.$.$.$.$.$.! G m : 1.1.1.1.1.1.1.1.",
"1.1.1.1.1.1.1.2 m G R o.o.o.o.o.o.o.o.o.o.o.o.o.o.o.o.o.o.o.o.o.o.o.o.o.o.o.o.o.o.o.o.o.o.o.o.o.o.o.o.o.o.Q G b @ 1.1.1.1.1.1.1.",
"1.1.1.1.1.1.% v G Y ..X.X.X.X.X.X.X.X.X.X.X.X.X.X.X.X.X.X.X.X.X.X.X.X.X.X.X.X.X.o.X.X.X.X.X.X.X.X.X.X.X.X...R F p 1.1.1.1.1.1.1.",
"1.1.1.1.1.1.y F P | .................................................................. ..................... .Y D r 1.1.1.1.1.1.",
"1.1.1.1.1.1 Z J ~  . . . . . . . . . . . . . . . . . . . . . . . . . . . . . . . . . . . . . . . . . . . . . .{ L C < 1.1.1.1.1.",
"1.1.1.1.% n G E | | | | | | | | | | | | | | | | | | | | | | | | | | | | | | | | | | | | | | | | | | | | | | | | Q H v 1.1.1.1.1.",
"1.1.1.1.r F P { } } } } } } } } } } } } } } } } } } } } } } } } } } } { } } } } } } } } } } } } } } } } } } } } } U D w 1.1.1.1.",
"1.1.1.2 B J Q { { { { { { { { { { { { { { { { { { { { { { { { { { { { { { { { { { { { { { { { { { { { { { { { { { ~ J M % 1.1.1.",
"1.1.1.r F U [ [ [ [ [ [ [ [ [ [ [ [ [ [ [ [ [ [ [ [ [ [ [ [ [ [ [ [ [ [ [ [ [ [ [ [ [ [ [ [ [ [ [ [ [ [ [ [ [ [ [ [ Y D t 1.1.1.",
"1.1.% N H W ~ ~ ~ ~ ~ ~ ~ ~ ~ ~ ~ ~ ~ ~ ~ ~ ~ ~ ~ ~ ~ ~ ~ ~ ~ ~ ~ ~ ~ ~ ~ ~ ~ ~ ~ ~ ~ ~ ~ ~ ~ ~ ~ ~ ~ ~ ~ ~ ~ ~ ~ ~ Q J m % 1.1.",
"1.1.w D I ! ! ! ! ! ! ! ! ! ! ! ! ! ! ! ! ! ! ! ! ! ! ! ! ~ ~ ! ! ~ ! ~ ! ! ~ ! ! ! ! ! ! ! ! ! ! ! ! ! ! ! ! ! ! ! ! U S 1 1.1.",
"1.1.v G R Q Q Q Q Q Q Q Q Q Q Q Q Q Q Q Q Q Q Q W W E R R Y Y Y Y Y Y R R E W Q Q Q Q Q Q Q Q Q Q Q Q Q Q Q Q Q Q Q Q R H p 1.1.",
"1.: C K W Q W W W W W W W W W W W W W W E T U P K J H G G G G G G G G G H H J K P U T R W W W W W W W W W W W W W W W W L B 2 1.",
"1.w D I E E E R E E E E E E E W R T U L H G G G G G G G G G G G G G G G G G G G G G G J L I T R E E E E E E E E E E E W U D 1 1.",
"1.i H Y R R R R R R R R R R T I K H G G G G G G G G G G G G G G G G G G G G G G G G G G G G G K I Y R R R R R R R R R R T H y 1.",
"% m J T T R T T R T T T Y P J G G G G G G G G G G G G G G G G G G G G G G G G G G G G G G G G G G H L U T T R T T R T T T J b 1.",
"; V K Y Y Y Y Y Y Y U L H G G G G G G G G G G G G G G G G G G G G G G G G G G G G G G G G G G G G G G G J I Y Y Y Y Y Y Y L N % ",
"1 A L Y U Y U Y U L H G G G G G G G G G G G G G G G G G G G G G G G G G G G G G G G G G G G G G G G G G G G J I U Y U Y U P Z : ",
"w D L U I U I P J G G G G G G G G G G G G G G G G G G G G G G G G G G G G G G G G G G G G G G G G G G G G G G G K P I U U L S 1 ",
"e F L I I L K G G G G G G G G G G G G G G G G G G G G G G G G G G G G G G G G G G G G G G G G G G G G G G G G G G H K P I L D w ",
"q F J L J G G G G G G G G G G G G G G G G G G G G G G G G G G G G G G G G G G G G G G G G G G G G G G G G G G G G G G H J J D 1 ",
", D G G G G G G G G G G G G G G G G G G G G G G G G G G G G G G G G G G G G G G G G G G G G G G G G G G G G G G G G G G G G A = ",
"+ Z G G G G G G G G G G G G G G G G G G G G G G G G G G G G G G G G G G G G G G G G G G G G G G G G G G G G G G G G G G G G N . ",
"  n G G G G G G G G G G G G G G G G G G G G G G G G G G G G G G G G G G G G G G G G G G G G G G G G G G G G G G G G G G G G u X ",
"  0 F G G G G G G G G G G G G G G G G G G G G G G G G G G G G G G G G G G G G G G G G G G G G G G G G G G G G G G G G G G Z + X ",
"# X n G G G G G G G G G G G G G G G G G G G G G G G G G G G G G G G G G G G G G G G G G G G G G G G G G G G G G G G G G G y * 2 ",
"5 a - Z G G G G G G G G G G G G G G G G G G G G G G G G G G G G G G G G G G G G G G G G G G G G G G G G G G G G G G G G m o k 5 ",
"4 ( 4 0 S G G G G G G G G G G G G G G G G G G G G G G G G G G G G G G G G G G G G G G G G G G G G G G G G G G G G G G B O f ` * ",
"$ _ _ X e D G G G G G G G G G G G G G G G G G G G G G G G G G G G G G G G G G G G G G G G G G G G G G G G G G G G G B + 4 @.( 1.",
"1.z <.x   0 Z G G G G G G G G G G G G G G G G G G G G G G G G G G G G G G G G G G G G G G G G G G G G G G G G G G m + & ] <.j 1.",
"1.a -.>.x   - M F G G G G G G G G G G G G G G G G G G G G A m v c n Z F G G G G G G G G G G G G G G G G G G G S i   3 ] <.=.9 1.",
"1.5 O.<.<.( # . u A G G G G G G G G G G G G G G G G G S i + X # # X O y Z G G G G G G G G G G G G G G G G F M ,   8 O.<.<.' 4 1.",
"1.1.^ <.<.<.] 7   = v A G G G G G G G G G G G G G G A , X f _ +.O.` h $ - V G G G G G G G G G G G G G F B e   o k =.<.<.<.z 1.1.",
"1.1.a -.<.<.<.=.z $   - p Z F G G G G G G G G G G D 0 $ / -.>.>.>.<.-._ * - A G G G G G G G G G G D M e .   9 ` >.<.<.<.#.9 1.1.",
"1.1.* ` <.<.<.<.<.+.h $   O e m A F G G G G G G G b X x -.-.>.-.>.>.-.-.) o i G G G G G G G D B p -     7 ( -.<.<.<.<.<.) 1.1.1.",
"1.1.1.g >.<.<.<.<.<.<.O.l 4     + e v V S F G G F , 5 @.-.-.-.-.-.-.-.-.#.s = S G G D Z m u > .   o a ) =.<.<.<.<.<.<.-.d 1.1.1.",
"1.1.1.4 ' <.<.<.<.<.<.<.<.#.) d *       = 0 u b b . k =.=.#.=.#.#.=.=.=.=.^ . i p e > O     o 7 z O.>.<.<.<.<.<.<.<.<._ * 1.1.1.",
"1.1.1.1.g -.<.<.<.<.<.<.<.<.<.<.@._ k 7 $           ^ #.#.=.=.=.=.=.#.#.=.) X       o 4 d ^ O.-.<.<.<.<.<.<.<.<.<.<.=.a 1.1.1.1.",
"1.1.1.1.* ( <.<.<.<.<.<.<.<.<.<.<.<.<.>.@.` / j 9   x #.#.=.-.-.-.-.-.#.#.( X a x _ O.=.>.<.<.<.<.<.<.<.<.<.<.<.<.<.^ 1.1.1.1.1.",
"1.1.1.1.1.7 +.<.<.<.<.<.<.<.<.<.<.<.<.<.<.<.<.<.=.4 d #.=.-.-.>.-.-.-.=.=.l $ @.<.<.<.<.<.<.<.<.<.<.<.<.<.<.<.<.<.O.5 1.1.1.1.1.",
"1.1.1.1.1.1.h >.<.<.<.<.<.<.<.<.<.<.<.<.<.<.<.<.<.j $ ' -.-.>.>.>.>.-.-.O.4 a >.<.<.<.<.<.<.<.<.<.<.<.<.<.<.<.<.=.d 1.1.1.1.1.1.",
"1.1.1.1.1.1.1.x >.<.<.<.<.<.<.<.<.<.<.<.<.<.<.<.<.+.% 9 @.>.>.<.<.>.>.#.h o ` <.<.<.<.<.<.<.<.<.<.<.<.<.<.<.<.>.z 1.1.1.1.1.1.1.",
"1.1.1.1.1.1.1.* ) <.<.<.<.<.<.<.<.<.<.<.<.<.<.<.<.<.( o 9 ' -.>.<.-.O.d X x >.<.<.<.<.<.<.<.<.<.<.<.<.<.<.<.<./ * 1.1.1.1.1.1.1.",
"1.1.1.1.1.1.1.1.4 _ <.<.<.<.<.<.<.<.<.<.<.<.<.<.<.<.<.) * o 9 j l a $ $ ^ >.<.<.<.<.<.<.<.<.<.<.<.<.<.<.<.<.) 4 1.1.1.1.1.1.1.1.",
"1.1.1.1.1.1.1.1.1.4 ` <.<.<.<.<.<.<.<.<.<.<.<.<.<.<.<.<.@.x 9 4 * 7 l +.<.<.<.<.<.<.<.<.<.<.<.<.<.<.<.<.<.) * 1.1.1.1.1.1.1.1.1.",
"1.1.1.1.1.1.1.1.1.1.4 ) >.<.<.<.<.<.<.<.<.<.<.<.<.<.<.<.<.<.>.=.=.>.<.<.<.<.<.<.<.<.<.<.<.<.<.<.<.<.<.>./ * 1.1.1.1.1.1.1.1.1.1.",
"1.1.1.1.1.1.1.1.1.1.1.* x -.<.<.<.<.<.<.<.<.<.<.<.<.<.<.<.<.<.<.<.<.<.<.<.<.<.<.<.<.<.<.<.<.<.<.<.<.-.l * 1.1.1.1.1.1.1.1.1.1.1.",
"1.1.1.1.1.1.1.1.1.1.1.1.1.g +.<.<.<.<.<.<.<.<.<.<.<.<.<.<.<.<.<.<.<.<.<.<.<.<.<.<.<.<.<.<.<.<.<.<.O.d 1.1.1.1.1.1.1.1.1.1.1.1.1.",
"1.1.1.1.1.1.1.1.1.1.1.1.1.1.5 ( -.<.<.<.<.<.<.<.<.<.<.<.<.<.<.<.<.<.<.<.<.<.<.<.<.<.<.<.<.<.<.=.^ 5 1.1.1.1.1.1.1.1.1.1.1.1.1.1.",
"1.1.1.1.1.1.1.1.1.1.1.1.1.1.1.1.d _ >.<.<.<.<.<.<.<.<.<.<.<.<.<.<.<.<.<.<.<.<.<.<.<.<.<.<.-._ a 1.1.1.1.1.1.1.1.1.1.1.1.1.1.1.1.",
"1.1.1.1.1.1.1.1.1.1.1.1.1.1.1.1.1.* g _ =.<.<.<.<.<.<.<.<.<.<.<.<.<.<.<.<.<.<.<.<.<.<.#.) d * 1.1.1.1.1.1.1.1.1.1.1.1.1.1.1.1.1.",
"1.1.1.1.1.1.1.1.1.1.1.1.1.1.1.1.1.1.1.* 9 x ] -.<.<.<.<.<.<.<.<.<.<.<.<.<.<.<.<.=.' z 9 1.1.1.1.1.1.1.1.1.1.1.1.1.1.1.1.1.1.1.1.",
"1.1.1.1.1.1.1.1.1.1.1.1.1.1.1.1.1.1.1.1.1.1.* 9 j ( ] @.=.>.>.>.>.>.-.=.+.] / j 9 * 1.1.1.1.1.1.1.1.1.1.1.1.1.1.1.1.1.1.1.1.1.1.",
"1.1.1.1.1.1.1.1.1.1.1.1.1.1.1.1.1.1.1.1.1.1.1.1.1.1.* 5 9 d g g g g a 9 5 * 1.1.1.1.1.1.1.1.1.1.1.1.1.1.1.1.1.1.1.1.1.1.1.1.1.1."
};
