/* XPM */
static char *result[] = {
/* columns rows colors chars-per-pixel */
"64 64 62 1 ",
"  c #00A757",
". c #00A758",
"X c #00A859",
"o c #09AB5F",
"O c #0DAC61",
"+ c #12AE65",
"@ c #16B067",
"# c #17B068",
"$ c #1CB16B",
"% c #21B36F",
"& c #25B571",
"* c #2BB775",
"= c #2EB877",
"- c #2FB878",
"; c #33B97A",
": c #39BB7E",
"> c #3EBD81",
", c #43BF84",
"< c #46C086",
"1 c #4BC18A",
"2 c #52C48E",
"3 c #56C591",
"4 c #59C693",
"5 c #5EC897",
"6 c #60C997",
"7 c #65CA9B",
"8 c #69CC9E",
"9 c #6ECEA1",
"0 c #72CEA3",
"q c #76D0A6",
"w c #79D1A7",
"e c #7CD2AA",
"r c #83D4AE",
"t c #86D5B0",
"y c #8AD7B3",
"u c #8ED8B6",
"i c #90D9B7",
"p c #94DAB9",
"a c #9BDCBD",
"s c #9EDEC0",
"d c #A2DFC2",
"f c #A6E0C5",
"g c #AAE1C7",
"h c #ABE2C8",
"j c #B3E5CD",
"k c #B6E6D0",
"l c #BBE7D3",
"z c #BDE8D4",
"x c #C1E9D6",
"c c #C6EBDA",
"v c #CCEDDD",
"b c #D1EFE1",
"n c #D7F1E5",
"m c #DEF3E9",
"M c #E2F5EC",
"N c #EAF7F1",
"B c #EEF9F3",
"V c #F4F4F4",
"C c #F2FAF6",
"Z c #F7FCF9",
"A c #FEFEFE",
"S c None",
/* pixels */
"SSSSSSSSSSSSSSSSSSSSSSSSSSSSSSSSSSSSSSSSSSSSSSSSSSSSSSSSSSSSSSSS",
"SSSSSSSSSSSSSSSSSSSSSSSSSSSSSSSSSSSSSSSSSSSSSSSSSSSSSSSSSSSSSSSS",
"SSSSSSSSSSSSSSSSSSSSSSSSSSSSSSSSSSSSSSSSSSSSSSSSSSSSSSSSSSSSSSSS",
"SSSSSSSSSSSSSSSSSSSSSSSSSSSSSSSSSSSSSSSSSSSSSSSSSSSSSSSSSSSSSSSS",
"SSSSSSSSSSSSSSSSSSSSSSSSSSSSSSSSSSSSSSSSSSSSSSSSSSSSSSSSSSSSSSSS",
"SSSSSSSSSSSSSSSSSSSSSSSSSSSSSSSSSSSSSSSSSSSSSSSSSSSSSSSSSSSSSSSS",
"SSSSSSSSSSSSSSSSSSSSSSSSSSSSSSSSSSSSSSSSSSSSSSSSSSSSSSSSSSSSSSSS",
"SSSSSSSSSSSSSSSSSSSSSSSSSSSSSSSSSSSSSSSSSSSSSSSSSSSSSSSSSSSSSSSS",
"SSSSSSSSSSSSSSSSSSSSSSSSSSSSSSSSSSSSSSSSSSSSSSSSSSSSSSSSSSSSSSSS",
"SSSSSSSSSSSSSSSSSSSSSSSSSSSSSSSSSSSSSSSSSSSSSSSSSSSSSSSSSSSSSSSS",
"SSSSSSSSSSSSSSSSSSSSSSSSSSSSSSSSSSSSSSSSSSSSSSSSSSSSSSSSSSSSSSSS",
"SSSSSSSSSSSSSSSSSSSSSSSSSSSSSSSSSSSSSSSSSSSSSSSSSSSSSSSSSSSSSSSS",
"SSSSSSSSSSSSSSSSSSSSSSSSSSSSSSSSSSSSSSSSSSSSSSSSSSSSSSSSSSSSSSSS",
"SSSSVVVVVVVVVVVVVVVVVVVVVVVVVVVVVVVVVVVVVVVVVVVVVVVVVVVVVVVVSSSS",
"SSSSAAAAAAAAAAAAAAAAAAAAAAAAAAAAAAAAAAAAAAAAAAAAAAAAAAAAAAAASSSS",
"SSSSAAAABNNNNNNNNNNBNNNNNBNNNNNNNNNNNBNNNNNNNBNNNBNNNNNBAAAASSSS",
"SSSSAAAy-*****************************&****************;uZAASSSS",
"SSSSAAb+XXXX   X  X   X     X       XO1<o X   X X X     @nAVSSSS",
"SSSSAAcOXXXXXXXXXXXXXX X XX XXXXXXXXoaAZwX XXXXXXXXXXXXXOcAASSSS",
"SSSSAAcOXXXXXXXXXXXXXo7ppa6oXXXXXXXX$MAAv#OoXXXXXXXXXXXXOcAASSSS",
"SSSSVAcOXXXXXXXXXXXXX9ZAAm: XXXXXXXXOjAAZvcxwOXXXXXXXXXXOcAZSSSS",
"SSSSAAcOXX.XXXXXXXXX5CAAM, XXXXXXXXXX$jAAAgjZuOXXXXXXXX OcAZSSSS",
"SSSSAAcOXXXXXX.XXX 1NAAN2       XXXX  tAAAj#tZpoXXXXXXXXOcAASSSS",
"SSSSAAcOXXXX.XXXXX,MAAAv009000q7+ XO6wcAAAAwo0aOXXXXXXX OcAASSSS",
"SSSSAAcO ...XXXXX;nAAAAAAAAAAAAN& X%vCBbBAAN>Xo XXXXXXXXOcAASSSS",
"SSSSZAcO  ..XXXXohAAAAAAAAAAAAAM& XX%**$sAAAuXXXXXXXXXX OcAZSSSS",
"SSSSZAcOX...XXXXX<MAAAAAAAAAAAAN& XXX  ,bAAZ3 XXXXXXXXXXOcAZSSSS",
"SSSSAAcOXXXX.XXXXX3BAAAvpppppipr+XXXXo7NAZAb#XXXXXXXXXX OcAASSSS",
"SSSSAAcOXXXXXXXXXXX7CAAM>  X XX XXXX *NAtcAu XXXXXXXXXXXOcAZSSSS",
"SSSSAAcOXXXXXXXXXXXXqZAAn; XXXXXXXXX *Bv$dAv,XXXXXXXXXXXOcAZSSSS",
"SSSSZAcOXXX.XX.XXXXXorAAAv* XXXXXXXXX*Bv+$yCZa&XXXXXXXX OcAASSSS",
"SSSSZAcOXXXXXXXXXXXX Orjjj9oXXXXXXXX *CcOXX,zAdoXXXXXXXXOcAASSSS",
"SSSSAAcOXXXXXXXXXXXXXXXoXoooXXXXXXXX &BxoXX +00oXXXXXXXXOcAASSSS",
"SSSSZAb+  XXX X  XX   XXX  XX XXXX  Xo92  XX   X  XXXXX +bAVSSSS",
"SSSSZAZ0$#########$$##$++$####$#+$#$##+#####$$+$$$+$####0ZAASSSS",
"SSSSAAAAmnnnnnnnnnnnnbnbnbnnnbnnnnnnnnnbnnnnbnnnbnnbnnnmAAAASSSS",
"SSSSAAAx978778777777777777777677777777777677777777887770xAAZSSSS",
"SSSSAAm&            $32&-++:,54#;*  $52+%43%     X      &MAZSSSS",
"SSSSAAcO XXXXXXXXXo 4a7au>;p>j9&dao 5p7y0a2%XXXXXXXX XX OcAASSSS",
"SSSSZAcOXXXXXXXXXX  4kd7y:;uXi*>ad; 77Odrd0%XXXXXXXXXXXXOcAASSSS",
"SSSSAAxOXXXXXXXXXXX 4w7ew00eXp-tupr 6i6i0i,%XXXXXXXXXXXX+cAASSSS",
"SSSSAAcOXXXXXXXX   X&;O<%67#X>$,o+> &76$&87* XX X XXXXXXocAZSSSS",
"SSSSAAcO XXXXX#:;%$ $o%+ O;&o$X$+o%X &;o++o:-X$+o$XXXXX OcAZSSSS",
"SSSSAAcOXXXXX ty63rOu&geOtwp1pO0,3x$,pr002eri4yy;wXXXXXXOcAASSSS",
"SSSSVAcO XXXXXip6&p3e<aa<sX$:aoe3up7r, *qqao;aijerXXXXXXOcAASSSS",
"SSSSAAcOXXXXXXu9;O9x<yajws*52d*urjpdr8-8r8d-5tr4zpXXXXXXOcAVSSSS",
"SSSSAAb#      3tw&&r#6+&3<rq@2t02>o6;qt:,;,te&2$,5      +nAASSSS",
"SSSSVAAi;******--*************;*&*****-***&-*&*********;iZAASSSS",
"SSSSVAAABNNNBNNNNNBNNNNNBNNNNNNNNNNNNNNNNNNNNNNNBNNNNNNBAAAASSSS",
"SSSSAAAAAAAAAAAAAAAAAAAAAAAAAAAAAAAAAAAAAAAAAAAAAAAAAAAAAAAASSSS",
"SSSSVVVVVVVVVVVVVVVVVVVVVVVVVVVVVVVVVVVVVVVVVVVVVVVVVVVVVVVVSSSS",
"SSSSSSSSSSSSSSSSSSSSSSSSSSSSSSSSSSSSSSSSSSSSSSSSSSSSSSSSSSSSSSSS",
"SSSSSSSSSSSSSSSSSSSSSSSSSSSSSSSSSSSSSSSSSSSSSSSSSSSSSSSSSSSSSSSS",
"SSSSSSSSSSSSSSSSSSSSSSSSSSSSSSSSSSSSSSSSSSSSSSSSSSSSSSSSSSSSSSSS",
"SSSSSSSSSSSSSSSSSSSSSSSSSSSSSSSSSSSSSSSSSSSSSSSSSSSSSSSSSSSSSSSS",
"SSSSSSSSSSSSSSSSSSSSSSSSSSSSSSSSSSSSSSSSSSSSSSSSSSSSSSSSSSSSSSSS",
"SSSSSSSSSSSSSSSSSSSSSSSSSSSSSSSSSSSSSSSSSSSSSSSSSSSSSSSSSSSSSSSS",
"SSSSSSSSSSSSSSSSSSSSSSSSSSSSSSSSSSSSSSSSSSSSSSSSSSSSSSSSSSSSSSSS",
"SSSSSSSSSSSSSSSSSSSSSSSSSSSSSSSSSSSSSSSSSSSSSSSSSSSSSSSSSSSSSSSS",
"SSSSSSSSSSSSSSSSSSSSSSSSSSSSSSSSSSSSSSSSSSSSSSSSSSSSSSSSSSSSSSSS",
"SSSSSSSSSSSSSSSSSSSSSSSSSSSSSSSSSSSSSSSSSSSSSSSSSSSSSSSSSSSSSSSS",
"SSSSSSSSSSSSSSSSSSSSSSSSSSSSSSSSSSSSSSSSSSSSSSSSSSSSSSSSSSSSSSSS",
"SSSSSSSSSSSSSSSSSSSSSSSSSSSSSSSSSSSSSSSSSSSSSSSSSSSSSSSSSSSSSSSS",
"SSSSSSSSSSSSSSSSSSSSSSSSSSSSSSSSSSSSSSSSSSSSSSSSSSSSSSSSSSSSSSSS"
};
