/* XPM */
static char *result[] = {
/* columns rows colors chars-per-pixel */
"64 64 209 2 ",
"   c #030304",
".  c #080707",
"X  c #070709",
"o  c #0C0C0A",
"O  c #080807",
"+  c #120F0D",
"@  c #14120D",
"#  c #1A180E",
"$  c #141413",
"%  c #1B1611",
"&  c #1D1A11",
"*  c #1C1A1A",
"=  c #231D14",
"-  c #271D17",
";  c #252115",
":  c #262218",
">  c #2B251A",
",  c #2C291A",
"<  c #342C1C",
"1  c #3A2F1F",
"2  c #312619",
"3  c #36311D",
"4  c #3A331D",
"5  c #201F20",
"6  c #222122",
"7  c #2B2B2B",
"8  c #272528",
"9  c #3B2F20",
"0  c #3B3422",
"q  c #3B3622",
"w  c #353435",
"e  c #393435",
"r  c #3E3B34",
"t  c #423B1F",
"y  c #542E25",
"u  c #413523",
"i  c #463C23",
"p  c #4C3B25",
"a  c #4F3928",
"s  c #5F372C",
"d  c #403E33",
"f  c #4C2C23",
"g  c #6A3D2C",
"h  c #7E3D31",
"j  c #7A3535",
"k  c #4D4424",
"l  c #4A4328",
"z  c #554A26",
"x  c #534528",
"c  c #584D2A",
"v  c #574829",
"b  c #5D522C",
"n  c #56512B",
"m  c #484335",
"M  c #564C35",
"N  c #5E5538",
"B  c #64492E",
"V  c #63532D",
"C  c #65592D",
"Z  c #6C5B2D",
"A  c #734030",
"S  c #6A5332",
"D  c #675835",
"F  c #7A5F36",
"G  c #725931",
"H  c #6C602A",
"J  c #6E6331",
"K  c #756431",
"L  c #7B6C33",
"P  c #7C6139",
"I  c #7B6B39",
"U  c #7A6737",
"Y  c #3E3A44",
"T  c #424143",
"R  c #595958",
"E  c #6B634E",
"W  c #706E73",
"Q  c #813739",
"!  c #8C4635",
"~  c #934B33",
"^  c #994337",
"/  c #8B5A35",
"(  c #8B6C3C",
")  c #836539",
"_  c #916E3C",
"`  c #857535",
"'  c #837338",
"]  c #8D7B3A",
"[  c #89773A",
"{  c #91713C",
"}  c #927D39",
"|  c #9D7A3E",
" . c #957936",
".. c #A8783A",
"X. c #AE683B",
"o. c #DE5D3F",
"O. c #D7653F",
"+. c #D4703F",
"@. c #C5683E",
"#. c #853B41",
"$. c #BC555C",
"%. c #A94B50",
"&. c #886A42",
"*. c #887B45",
"=. c #9F7940",
"-. c #A7614F",
";. c #A37E44",
":. c #DF5E41",
">. c #E35C41",
",. c #ED5B42",
"<. c #F35D44",
"1. c #CD6841",
"2. c #D66241",
"3. c #D37943",
"4. c #F56045",
"5. c #DD6E74",
"6. c #DB7573",
"7. c #EA7A7C",
"8. c #E27879",
"9. c #95823A",
"0. c #9B873C",
"q. c #9E893D",
"w. c #A38D3E",
"e. c #A9823D",
"r. c #AA923F",
"t. c #B39E3F",
"y. c #9A8543",
"u. c #AB8244",
"i. c #A58A42",
"p. c #AE8649",
"a. c #A58542",
"s. c #B78D4A",
"d. c #B78C46",
"f. c #AC9542",
"g. c #A69241",
"h. c #B29744",
"j. c #BA9144",
"k. c #B59B42",
"l. c #BA9748",
"z. c #AA9759",
"x. c #BDA244",
"c. c #BBA34A",
"v. c #B7A045",
"b. c #BAA354",
"n. c #BBA868",
"m. c #C08F42",
"M. c #D48744",
"N. c #C49446",
"B. c #C5944B",
"V. c #C99749",
"C. c #C39F49",
"Z. c #CD9B4A",
"A. c #C69B45",
"S. c #D59A46",
"D. c #D19C4B",
"F. c #D79244",
"G. c #CC8D5B",
"H. c #D49F53",
"J. c #CE9459",
"K. c #C2A546",
"L. c #CAA445",
"P. c #C5AA44",
"I. c #CAAD46",
"U. c #C4A24A",
"Y. c #CCAC4A",
"T. c #CBA94C",
"R. c #DAA446",
"E. c #D5A44C",
"W. c #DDA44C",
"Q. c #D4AC4A",
"!. c #DDAB4C",
"~. c #D0AA45",
"^. c #CFB146",
"/. c #CEB149",
"(. c #D4B546",
"). c #DCBB46",
"_. c #D4B449",
"`. c #DCBC4B",
"'. c #DAB548",
"]. c #C2AB50",
"[. c #D6A253",
"{. c #DFAA50",
"}. c #DEB351",
"|. c #E1A64D",
" X c #E3AD4B",
".X c #E6B34B",
"XX c #E9B54C",
"oX c #E3BD4A",
"OX c #ECBC4C",
"+X c #F1BF4E",
"@X c #E1A950",
"#X c #CB8263",
"$X c #E4C14A",
"%X c #EBC44B",
"&X c #EDC94B",
"*X c #E8C547",
"=X c #F3C44C",
"-X c #F3CD4B",
";X c #FACD4B",
":X c #FED447",
">X c #F6D14C",
",X c #FED44A",
"<X c #FFD84B",
"1X c #F2C450",
"2X c #FDD451",
"3X c #EDC952",
"4X c #C1B790",
"5X c #C8C7C7",
"6X c None",
/* pixels */
"6X6X6X6X6X6X6X6X6X6X6X6X6X6X6X6X6X6X6X6X6X6X6X6X6X6X6X6X6X6X6X6X6X6X6X6X6X6X6X6X6X6X6X6X6X6X6X6X6X6X6X6X6X6X6X6X6X6X6X6X6X6X6X6X",
"6X6X6X6X6X6X6X6X6X6X6X6X6X6X6X6X6X6X6X6X6X6X6X6X6X6X6X6X6X6X6X6X6X6X6X6X6X6X6X6X5 6X6X6X6X6X6X6X6X6X6X6X6X6X6X6X6X6X6X6X6X6X6X6X",
"6X6X6X6X6X6X6X6X6X6X6X6X6X6X6X6X6X6X6X6X6X6X6X6X6X6X6X6X6X6X6X6X6X6X6X6X6X6X6X6 w $ 6X6X6X6X6X6X6X6X6X6X6X6X6X6X6X6X6X6X6X6X6X6X",
"6X6X6X6X6X6X6X6X6X6X6X6X6X6X6X6X6X6X6X6X6X6X6X6X6X6X6X6X6X6X6X6X6X6X6X6X6X6X$ w e * 6X6X6X6X6X6X6X6X6X6X6X6X6X6X6X6X6X6X6X6X6X6X",
"6X6X6X6X6X6X6X6X6X6X6X6X6X6X6X6X6X6X6X6X6X6X6X6X6X6X6X6X6X6X6X6X6X6X6X6X6X6X8 e e - 6X6X6X6X6X6X6X6X6X6X6X6X6X6X6X6X6X6X6X6X6X6X",
"6X6X* 7 8 6 * 6X6X6X6X6X6X6X6X6X6X6X6X6X6X6X6X6X6X6X6X6X6X6X6X6X6X6X6X6X6X* w e e 6 6X6X6X6X6X6X6X6X6X6X6X6X6X6X6X6X6X6X6X6X6X6X",
"6X6X. 8 w e w 7 6 : 6X6X6X6X6X6X6X6X6X6X6X6X6X6X6X6X6X6X6X6X6X6X6X6X6X6X6Xb N w w 5 6X6X6X6X6X6X6X6X6X6X6X6X6X6X6X6X6X6X6X6X6X6X",
"6X6X6Xo 7 e w w r g.0.k 6X6X6X6X6X6X6X6X6X6X6X6X6X6X6X6X6X6X6X6X6X6X6X6X= c.`.D w 6 6X6X6X6X6X6X6X6X6X6X6X6X6X6X6X6X6X6X6X6X6X6X",
"6X6X6X6X$ 7 w w m (.2X$X0.k 6X6X6X6X6X6X6X6X6X6X6X6X6X6X6X6X6X6X6X6X6X6Xk %X,X(.m 6 6X6X6X6X6X6X6X6X6X6X6X6X6X6X6X6X6X6X6X6X6X6X",
"6X6X6X6X6X$ 7 w r ].<X,X2X$X9.4 6X6X6X6X6X6X6X6X6X6X6X6X6X6X6X6X6X6X6X6X' <X>X,Xq.* 6X6X6X6X6X6X6X6X6X6X6X6X6X6X6X6X6X6X6X6X6X6X",
"6X6X6X6X6X6X$ 7 e h.<X,X,X:X<X/.J 6X6X6X6X6X6X6X6X6X6X6X6X6X6X6X6X6X6X@ k.<X:X<X_.< 6X6X6X6X6X6X6X6X6X6X6X6X6X6X6X6X6X6X6X6X6X6X",
"6X6X6X6X6X6X6X+ 8 ( +X;X,X,X,X<X-Xw.4 6X6X6X6X6X6X6X6X6X6X6X6X6X6X6X6X3 ).<X,X,X/.< 6X6X6X6X6X6X6X6X6X6X6X6X6X6X6X6X6X6X6X6X6X6X",
"6X6X6X6X6X6X6X6XX u B..X=X;X,X,X<X,XK.x 6X6X6X6X6X6X6X6X6X6X6X6X6X6X6Xn >X:X,X2Xk.6X6X6X6X6X6X6X6X6X6X6X6X6X6X6X6X6X6X6X6X6X6X6X",
"6X6X6X6X6X6X6X6X6X  u ;.W.XX=X:X:X:X<X_.b 6X6X6X6X6X6X6X6X6X6X6X6X6X6XL <X:X,X<X .6X6X6X6X6X6X6X6X6X6X6X6X6X6X6X6X6X6X6X6X6X6X6X",
"6X6X6X6X6X6X6X6X6X6X  # S N.{.OX;X,X,X<X_.C Z ' ] [ L C 4 6X6X6X6X6XO 0.,X,X,X-XU 6X6X6X6X6X6X6X6X6X6X6X6X6X6X6X6X6X6X6X6X6X6X6X",
"6X6X6X6X6X6X6X6X6X6X6X6X  2 ) N.!.=X:X:X>X&X-X<X<X,X<X&X).h.K 3 6X6X@ k.<X,X,XoXx 6X6X6X6X6X6X6X6X6X6X6X6X6X6X6X6X6X6X6X6X6X6X6X",
"6X6X6X6X6X6X6X6X6X6X6X6X6X6X. > S | L.>X,X:X,X,X:X,X,X:X,X<X>XY.K = @ K.2X,X,XA.< 6X6X6X6X6X6X6X6X6X6X6X6X6X6X6X6X6X6X6X6X6X6X6X",
"6X6X6X6X6X6X6X6X6X6X6X6X6X6X6X6X  4 ^.:X,X,X,X,X,X,X,X,X,X,X:X,X>Xf.i I.<X,X-X=.6X6X6X6X6X6X6X6X6X6X6X6X6X6X6X6X6X6X6X6X6X6X6X6X",
"6X6X6X6X6X6X6X6X6X6X6X6X6X6X6X6X+ q.,X,X,X,X:X,X,X,X,X,X,X,X,X,X,X<X_.Y.;X,X.XS 6X6X6X6X6X6X6X6X6X6X6X6X6X6X6X6X6X6X6X6X6X6X6X6X",
"6X6X6X6X6X6X6X6X6X6X6X6X6X6X6X6Xz &X,X<X,X:X,X,X,X,X:X,X,X,X,X,X,X,X<X$X%X;XV.9 6X6X6X6X6X6X6X6X6X6X6X6X6X6X6X6X6X6X6X6X6X6X6X6X",
"6X6X6X6X6X6X6X6X6X6X6X6X6X6X6X@ i.<X3Xf.b.3X<X<X,X:X,X,X,X,X,X,X,X:X:X<X:XXX( 6X6X6X6X6X6X6X6X6X6X6X6X6X6X6X6X6X6X6X6X6X6X6X6X6X",
"6X6X6X6X6X6X6X6X6X6X6X6X6X6X6X3 `.>XI R 5Xn.,X,X,X,X,X,X,X,X,X,X,X,X2X,X:XC.q 6X6X6X6X6X6X6X6X6X6X6X6X6X6X6X6X6X6X6X6X6X6X6X6X6X",
"6X6X6X6X6X6X6X6X6X6X6X6X6X6X6XL ,X&XM T W *.>X:X,X,X:X,X,X,X,X,X:X<X,X;X:X} 6X6X6X6X6X6X6X6X6X6X6X6X6X6X6X6X6X6X6X6X6X6X6X6X6X6X",
"6X6X6X6X6X6X6X6X6X6X6X6X6X6X- d.:X>Xy.m N I.,X,X,X,X,X,X,X,X,X,X-X;X,X,X,X0.6X6X6X6X6X6X6X6X6X6X6X6X6X6X6X6X6X6X6X6X6X6X6X6X6X6X",
"6X6X6X6X6X6X6X6X6X6X6X6X6X@ Q 2.!.:X>X).$X:X,X,X,XoX-X,X,X,X;X].4Xz.%X,X<X} 6X6X6X6X6X6X6X6X6X6X6X6X6X6X6X6X6X6X6X6X6X6X6X6X6X6X",
"6X6X6X6X6X6X6X6X6X6X6X6X6Xy ,.<.F.,X<X<X<X>X2X2X<X`.&X<X:X,X$XE 5XW i.,X>XU 6X6X6X6X6X6X6X6X6X6X6X6X6X6X6X6X6X6X6X6X6X6X6X6X6X6X",
"6X6X6X6X6X6X6X6X6X6X6X6X6X! <.,.M.>X:X,X>XL.j.d.....$X<X<X<X$XM w w y.<X%Xx 6X6X6X6X6X6X6X6X6X6X6X6X6X6X6X6X6X6X6X6X6X6X6X6X6X6X",
"6X6X6X6X6X6X6X6X6X6X6X6X. ^ <.>.F.,X,X,X<Xj.j Q Q j / ~.>X>X>Xh.N P oX,XP., 6X6X6X6X6X6X6X6X6X6X6X6X6X6X6X6X6X6X6X6X6X6X6X6X6X6X",
"6X6X6X6X6X6X6X6X6X6X6X6X  h <.O.XX<X,X,X<Xj.%.$.$.%.#.h | oX:X<X-X-X,X<Xw.6X6X6X6X6X6X6X6X6X6X6X6X6X6X6X6X6X6X6X6X6X6X6X6X6X6X6X",
"6X6X6X6X6X6X6X6X6X6X6X6X6Xy 1.S.;X:X,X,X:XD.6.7.7.5.$.Q ..>X,X,X,X:X<X2X` 6X6X6X6X6X7 6X6X6X6X6X6X6X6X6X6X6X6X6X6X6X6X6X6X6X6X6X",
"6X6X6X6X6X6X6X6X6X6X6X6X6X= U.<X<X,X,X:X<XH.8.7.7.7.5.-.*X,X,X,X<X-XR.M.v # z ' g.x.Y.I 6X6X6X6X6X6X6X6X6X6X6X6X6X6X6X6X6X6X6X6X",
"6X6X6X6X6X6X6X6X6X6X6X6X6X  [ <X:X,X,X,X:X[.6.7.7.7.6.E.,X,X<X:X>XM.>.>./ v.&X2X2X<X2XP.n 6X6X6X6X6X6X6X6X6X6X6X6X6X6X6X6X6X6X6X",
"6X6X6X6X6X6X6X6X6X6X6X6X6X  3 `.:X,X,X:X<X}.6.7.7.8.J.-X,X,X,X<XR.o.<.>.R.<X,X,X:X,X<X-XJ 6X6X6X6X6X6X6X6X6X6X6X6X6X6X6X6X6X6X6X",
"6X6X6X6X6X6X6X6X6X6X< Z ] q.w.T.'.).%X,X<X&X#X8.6.G.1X<X,X,X,X-X3.,.<.+.%X,X,X,X,X,X<XY.q 6X6X6X6X6X6X6X6X6X6X6X6X6X6X6X6X6X6X6X",
"6X6X6X6X6X6X6X6X6Xc K.-X<X<X,X,X>X&X`.(.&X,X!.G.[.-X2X,X,X:X,X-X+.,.O.R.,X,X,X,X:X>Xc.D % 6X6X6X6X6X6X6X6X6X6X6X6X6X6X6X6X6X6X6X",
"6X6X6X6X6X6X6X6Xi _.<X,X,X,X,X:X,X,X<X-X_.).-X>X<X,X,X:X:X;X>X<XS.@.S.,X:X:X<X:X<X$Xx.h.r.w.9.L C x 3 6X6X6X6X6X6X6X6X6X6X6X6X6X",
"6X6X6X6X6X6X6X6X` <X:X:X,X,X,X,X,X:X,X,X>X(.`.<X,X,X,X;X:X:X;X%X_.`.2X,X<X,X,X,XoX(.,X<X2X2X2X,X>X%X_.k.9.H t ; 6X6X6X6X6X6X6X6X",
"6X6X6X6X6X6X6X. w.<X,X,X,X:X,X,X,X:X,X,X,X&XA.!.OX%X;X:X:X$X_.).-X<X>X,X,X:X;X}.C.-X:X,X2X;X:X,X,X<X<X<X,X>X$Xx.] b < 6X6X6X6X6X",
"6X6X6X6X6X6X6X  L <X<X,X<X,X:X,X,X,X,X,X<XoXL. X X+X,X:X,X-X;X,X,X,X,X,X<X=X|.&.U.<X,X,X:X,X,X,X,X,X,X,X,X,X,X,X<X3XP.] z 6X6X6X",
"6X6X6X6X6X6X6X6X3 /.+XOX=X=X;X>X;X,X;X-X&XP.*X;X;X2X2X,X:X,X,X,X:X:X,X;XXXE.P < _.;X+X;X,X,X,X,X,X,X,X,X,X,X,X,X,X,X<X2X%Xg.3 6X",
"6X6X6X6X6X6X6X6X  x V.@XW. X X.XXX@XE.L.I.).>X,X,X,X,X,X,X,X,X,X,X;XOX XD.F + k &X+XW.|.OX;X:X:X,X,X,X,X,X,X,X:X,X,X<X<X>Xy., 6X",
"6X6X6X6X6X6X6X6X6X  4 { N.S.Z.Z.Z.L.'.-X>X,X,X,X,X:X,X,X,X,X,X,X,XXXW.B.V 6X6XK 2XXXW.W.W. X+X;X:X:X,X,X,X,X,X,X,X,X2X>Xy.& 6X6X",
"6X6X6X6X6X6X6X6X6X6X6X# g.oXoXOX=X>X,X,X,X,X,X,X,X,X,X,X:X,X,X2X=XE.;.i 6X6XO 0.,X XW.|.|.|.|.XX=X,X,X,X,X,X,X,X,X,X>X} & 6X6X6X",
"6X6X6X6X6X6X6X6X6X6X6X4 oX<X:X,X,X,X<X:X,X,X:X,X,X,X,X:X,X,X,X;XE.P - 6X6X6X# P.-X|.|.W.|.|.|.W.|.XX;X:X,X,X,X,X:X>X} & 6X6X6X6X",
"6X6X6X6X6X6X6X6X6X6X6XK <X,X,X,X,X,X,X,X,X,X,X,X,X,X,X,X,X,X,X,XY.0 6X6X6X6X< ).=X|.|.u.P a.V.E.|.|..X=X,X,X,X<X>X] & 6X6X6X6X6X",
"6X6X6X6X6X6X6X6X6X6X@ h.,X:X,X:X,X,X,X:X,X,X,X,X,X,X,X,X,X,X,X,X_.< $ u < o z -XXX|.Z.a   + < B { s.H.@X+X:X:X-X] & 6X6X6X6X6X6X",
"6X6X6X6X6X6X6X6X6X6Xu $X,X,X,X,X:X,X,X,X,X,X,X,X,X:X,X,X,X,X,X<X_.> > s.Y.k.U.>X.X|.) 6X6X6X6X6XO - p P ;.!.&X} & 6X6X6X6X6X6X6X",
"6X6X6X6X6X6X6X6X6X6XL >X:X,X,X,X,X,X,X,X,X,X:X,X,X,X,X,X:X,X,X,X_.: = d. X=X,X;X Xs.9 6X6X6X6X6X6X6X6X  % 1 c ; 6X6X6X6X6X6X6X6X",
"6X6X6X6X6X6X6X6X6X& x.<X,X,X,X,X,X,X,X,X,X,X:X,X,X,X,X,X,X,X,X,X_.2 @ ;.|. X+X=XW.S 6X6X6X6X6X6X6X6X6X6X6X6X6X6X6X6X6X6X6X6X6X6X",
"6X6X6X6X6X6X6X6X6Xk %X,X,X,X,X,X,X,X:X,X,X,X,X,X,X,X,X:X,X,X,X,XoX9 . _ S.B.( j.;.- 6X6X6X6X6X6X6X6X6X6X6X6X6X6X6X6X6X6X6X6X6X6X",
"6X6X6X6X6X6X6X6X6X} <X,X:X,X,X,X,X,X,X,X,X,X,X,X:X,X,X,X:X,X,X,X&Xc X B X./ @ - > 6X6X6X6X6X6X6X6X6X6X6X6X6X6X6X6X6X6X6X6X6X6X6X",
"6X6X6X6X6X6X6X6X, ^.,X,X,X,X,X,X:X,X,X,X:X,X,X,X,X,X,X,X,X,X,X,X<X;.s A ~ g 6X6X6X6X6X6X6X6X6X6X6X6X6X6X6X6X6X6X6X6X6X6X6X6X6X6X",
"6X6X6X6X6X6X6X6XC -X,X,X,X,X,X,X,X,X,X,X,X,X:X,X,X,X,X,X,X:X,X,X<XQ.! ~ ~ s 6X6X6X6X6X6X6X6X6X6X6X6X6X6X6X6X6X6X6X6X6X6X6X6X6X6X",
"6X6X6X6X6X6X6XX y.<X,X,X,X,X,X:X,X,X:X,X,X,X,X,X,X,X,X,X,X,X,X,X,X-XZ f A y 6X6X6X6X6X6X6X6X6X6X6X6X6X6X6X6X6X6X6X6X6X6X6X6X6X6X",
"6X6X6X6X6X6X6X@ c.<X,X,X,X,X,X,X,X,X,X<X,X,X,X,X,X,X,X,X,X,X,X:X<X2X'   + % 6X6X6X6X6X6X6X6X6X6X6X6X6X6X6X6X6X6X6X6X6X6X6X6X6X6X",
"6X6X6X6X6X6X6X+ h.,X;X;X:X,X,X,X:X,X,X,X:X,X,X<X,X;X;X:X,X:X,X,X,X<Xf.6X6X6X6X6X6X6X6X6X6X6X6X6X6X6X6X6X6X6X6X6X6X6X6X6X6X6X6X6X",
"6X6X6X6X6X6X6X  L OX|. XOX=X;X;X;X:X;X,X;X1XOX.XXXXXXXXX=X=X;X:X,X<Xv.6X6X6X6X6X6X6X6X6X6X6X6X6X6X6X6X6X6X6X6X6X6X6X6X6X6X6X6X6X",
"6X6X6X6X6X6X6X6X= a.E.|.|.|.|. X.X X X X@X|.W.W.W.W.W.W.R.W..XOX>X<Xw.6X6X6X6X6X6X6X6X6X6X6X6X6X6X6X6X6X6X6X6X6X6X6X6X6X6X6X6X6X",
"6X6X6X6X6X6X6X6X< [ U.Z.|.|.W.S.D.B.s.a.;.p.s.B.R.|.W.|.W.W.|.W.XX`.c 6X6X6X6X6X6X6X6X6X6X6X6X6X6X6X6X6X6X6X6X6X6X6X6X6X6X6X6X6X",
"6X6X6X6X6X6X9 I c.>X=XE.|.D.;.v u 2 - @ % > a S ( p.B.W.|.W.W.E.E...0 6X6X6X6X6X6X6X6X6X6X6X6X6X6X6X6X6X6X6X6X6X6X6X6X6X6X6X6X6X",
"6X6X6X6X6X; *.c.T.T.d.;.&.G u 6X6X6X6X6X6X6X6X6X. % 2 p S p.N.V.!..X_.' < 6X6X6X6X6X6X6X6X6X6X6X6X6X6X6X6X6X6X6X6X6X6X6X6X6X6X6X",
"6X6X6X6X6Xo 3 x p < = @ 6X6X6X6X6X6X6X6X6X6X6X6X6X6X6X6X. l ) a.Y.%X-X/.y.x 6X6X6X6X6X6X6X6X6X6X6X6X6X6X6X6X6X6X6X6X6X6X6X6X6X6X",
"6X6X6X6X6X6X6X6X6X6X6X6X6X6X6X6X6X6X6X6X6X6X6X6X6X6X6X6X6X6X  @ ; t K g.c.y.q 6X6X6X6X6X6X6X6X6X6X6X6X6X6X6X6X6X6X6X6X6X6X6X6X6X",
"6X6X6X6X6X6X6X6X6X6X6X6X6X6X6X6X6X6X6X6X6X6X6X6X6X6X6X6X6X6X6X6X6X6X  @ 4 l * 6X6X6X6X6X6X6X6X6X6X6X6X6X6X6X6X6X6X6X6X6X6X6X6X6X"
};
