/* XPM */
static char *result[] = {
/* columns rows colors chars-per-pixel */
"64 64 64 1 ",
"  c #8FB4BF",
". c #94B4BD",
"X c #98B6BE",
"o c #8FB7C3",
"O c #93B6C2",
"+ c #99B7C1",
"@ c #95B9C5",
"# c #9CBCC5",
"$ c #97BDC8",
"% c #9BBEC9",
"& c #A0BEC6",
"* c #A0BFC9",
"= c #9FC1C7",
"- c #9DC2CB",
"; c #A3C1C7",
": c #A3C4CC",
"> c #A9C6CC",
", c #A6C8CF",
"< c #ACC9CE",
"1 c #B2CDCF",
"2 c #A3C6D0",
"3 c #AAC7D0",
"4 c #A6CAD3",
"5 c #ABCCD4",
"6 c #A6CED8",
"7 c #AACFD8",
"8 c #B2CFD3",
"9 c #B8CFD0",
"0 c #AED0D6",
"q c #ADD1D9",
"w c #B3D1D5",
"e c #BBD4D5",
"r c #BFD9D7",
"t c #B3D4DA",
"y c #BAD6DB",
"u c #B7D8DD",
"i c #BCD9DD",
"p c #BDDCE0",
"a c #C1D7D5",
"s c #C4D9D6",
"d c #C9DAD7",
"f c #C3DCDD",
"g c #CADEDC",
"h c #D1DFDC",
"j c #CCE0DE",
"k c #D3E2DE",
"l c #C4DEE1",
"z c #C9DFE1",
"x c #C6E0E2",
"c c #CCE2E3",
"v c #D3E5E4",
"b c #D9E7E4",
"n c #D6E8E6",
"m c #DAE9E6",
"M c #D4E7E8",
"N c #D6E8E8",
"B c #DCEBE9",
"V c #E2EEEB",
"C c #E5F1EE",
"Z c #E8F2EE",
"A c #E7F2F0",
"S c #EBF4F1",
"D c #EFF8F4",
"F c None",
/* pixels */
"FFFFFFFFFFFFFFFFFFFFFFFFFFFFFFFFFFFFFFFFFFFFFFFFFFFFFFFFFFFFFFFF",
"FFFFFFFFFFFFFFFFFFFFFFFFFFFFFFFFFFFFFFFFFFFFFFFFFFFFFFFFFFFFFFFF",
"FFFFFFFFFFFFFFFFFFFFFFFFFFFFFFFFFFFFFFFFFFFFFFFFFFFFFFFFFFFFFFFF",
"FFFFFFFFFFFFFFFFFFFFFFFFFFFFFFFFFFFFFFFFFFFFFFFFFFFFFFFFFFFFFFFF",
"FFFFFFFFFFFFFFFFFFFFFFFFFFFFFFFFFFFFFFFFFFFFFFFFFFFFFFFFFFFFFFFF",
"FFFFFFFFFFFFFFFFFFFFFFFFFFFFFFFFFFFFFFFFFFFFFFFFFFFFFFFFFFFFFFFF",
"FFFFFFFFFFFFFFFFFFFFFFFFFFFFFFFFFFFFFFFFFFFFFFFFFFFFFFFFFFFFFFFF",
"FFFFFFFFFFFFFFFFFFFFFFFFFFFFFFFFFFFFFFFFFFFANFFFFFFFFFFFFFFFFFFF",
"FFFFFFFFFFFFFFFFFFFFFFFFFFFFAABMFSBNNABzFFFVzzNFFFFFFFFFFFFFFFFF",
"FFFFFFFFFFFFFFFFFFFFFFFFFFFMzcBBVVMclVVzNFANzlBFFFFFFFFFFFFFFFFF",
"FFFFFFFFFFFFFFFFFFFFFFFFFFVMcMBVvVclxMcxcVVMBVABMFFFFFFFFFFFFFFF",
"FFFFFFFFFFFFFFFFFFFFFFFFFFSBBmBVBCMcpxxppMBNVMNzvMCFFFFFFFFFFFFF",
"FFFFFFFFFFFFFFFFFFFFFFFFFFDMczzlMCCMlpppppcVNxcMVVmBFFFFFFFFFFFF",
"FFFFFFFFFFFFFFFFFFFFFFFFFFSvvzzplVAcxppppplAMMNAAclccFFFFFFFFFFF",
"FFFFFFFFFFFFFFFFFFFFFFFFSACzMMlttMBczppppppVMMBNvlpiplFFFFFFFFFF",
"FFFFFFFFFFFFFFFFFFFFFFFDSMMBVclttlvxlpppupMNccVNzllittpFFFFFFFFF",
"FFFFFFFFFFFFFFFFFFFFFFFDCzzzVzpqtpllpppqlBABvzSAvzlpt7tFFFFFFFFF",
"FFFFFFFFFFFFFFFFFFFFFFSABzplVzpqtqppppqtMSSCVSSAMlp7t77FFFFFFFFF",
"FFFFFFFFFFFFFFFFFFFFFFDVclpyMzpptpptttppMAChNSABzpt7777FFFFFFFFF",
"FFFFFFFFFFFFFFFFFFFFFFVVzpttzzpqqqpqpqpzAAzppvBcltt77ttMFFFFFFFF",
"FFFFFFFFFFFFFFFFFFFFFSVVlpttczpqpqtqp7yVSCzu7ppppu7777lVBFFFFFFF",
"FFFFFFFFFFFFFFFFFFFFFSBMlyuqppqqqqqqtzVAVBMy774ttt777pBVMmBVBFFF",
"FFFFFFFFFFFFFFFFFFFFFCbzlpu77tpqqqtqtzCABMztq667q7746tcBzgvMMFFF",
"FFFFFFFFFFFFFFFFFFFFFmcclputttytqqpqtzBBBVzap72677444tMMzflMMvCB",
"FFFFFFFFFFFFFFFFFFFFSVvccpp7ttytttttqlNBAAVMz77477737aVbcvkBbcmv",
"FFFFFFFFFFFFFFFFFFBVZZmVVptqtytttqtqtlBVVVbMl7744*77qcZbccvVbczz",
"FFmFFFFFFFFFFFFFFBCBVVCCVltttttttttttzAVBcllt7534675ymVVmvmVvzfz",
"ABmCFCNvmFFFFFFFFMBmmVVVBluttttqqqqttVVVCMlpt7t7663*tcVbbMbmzayf",
"VcxcNNNMccFFFFFFFFCMxcvBBlpptqtttq7tyBMbVvltqwzy73268lVzafhMzlta",
"AxqppcNBcxcFFFFFFFmxirfvmzllt77q7tttyBhlzlpttzzl7*6*3lmhw8yhdawt",
"Bp7qtplxxlxFFFFFFFBcryivvcli8777t7tqtVMyayttlzlaq2*68lbz888la888",
"Mp7qqppllpxcFFFFFFBMiifxclyt77677tt8tMMaitwazzyw7223*8ly88388838",
"MuqqqqppppxxBFFFFFVvjxjxjp0q0646777qqlbfitfgglat322235888<3353<8",
"MuuqquppppxpxFAFFNVvxxxvciq6064655775fvfyqfzftt7223223<88<33333>",
"NpuqquuppixxxBNMxvvNcvvvvu64664075773lBlt88ffw832222233383333>>3",
"ppuqquuupippxvcnvMjvcxvcxu4446647tt57fBzt558ye8**22*::2:*3>**>><",
"xlxxuqtuuppppcnBBAVxjcBvp06666,078t55ymzf85888322**:*22:*1*1>>>3",
"BNvnx6quuuppppNCCBnAvnCviyjj040577757iBbz85353>>*22-*%-******>*<",
"mBBBnu6tqtuuuucCBjvCnBBiuvnju00uyt85qBCmve5333::2*%****:*****1<<",
"BBMcxvxq66tqquxVNpjVBBmjycrtuwrjrw53tVVbmf532>::%:**%*********1*",
"CBccjbj66666qipnNxrnBCvxru00wfjry534rCBbjr5,,:;;:*#*#&#&**#**>*<",
"ncpjppt666wpppvnvjrnCmjruw00wjr054,5jVmkjr0,:::%%%##&&*&&*#**>*>",
"cjtwt0q40uBVnxnvpppnVnxuurr0ww0453,5bCmvrr<,;:;-#*#*&&*&&****>>>",
"juq6qq46vvBncrcjippnVvxpijvu00,4,445mVVjre<::;%##*#&#**#&&#***>*",
"8755464yjjvjruxruffjBjxrjvrw544,,44rmCBjww>;;;#=###&&&%%#*%**:*>",
"7744446ywrjuurpwrnnmVjcjnvu0,,,,4,wnVVjjw<>;-==##*###&&#%%%%:*:*",
"5545477510w00tuutcBnVkBVBjw5,,4,,4yjbVjw<:::-&####+###&#*%*****3",
"75637tww546000trujBnVBZVBjw4,,4-,-0skbr1<<>;;##&#++#####*%%***3g",
"5547t7883454700wxjmZZZVVVj0,,,,42:5fnbse1<>>;&X##+###*%#%%###%yg",
"555yt5754463440irrnVVZVkjr1,,,-42:,jZns91>>>;#;######;&##%#$#299",
"53qz74425445w70wwrnvVVbje0,,,,,,2-,nVka91>>;;#X##:3%%####$##&<<a",
"42yf4222447yfw500wjrbnsr011,2,,,,-1VBks1<>;;###&&&53###%%##$+&>g",
"24y022222,0w0550w00rnjew151,,,,---emkje1>;;;##=>&&11;#####%#&#<d",
"2yw42:22,,5q,,,,06,rjr105,,,,,-,-5kbjfe>;;&&#####&>>:###$*22*#*9",
"0t4--:22-224,4,,,-,wr0,,5,,,,-,--rmksss<;#X=##=X#&&&##%#+288*#&&",
"0:------2--,--2-,,,,w,4,,,,,-,--=wsjssr<;=#X####X#X####$%3ay<&&+",
"622-2%*%--2--222----44-,--------=;>99re,;XXX=X#@+#+#####>wskkga>",
"22--%2%%--%----------,---------=#==;>91;XXXX#+X#@+++. #=3egkjkVh",
"----%%%%%%%-------=$-----------o@@X#=;;=....XXXX+@++@#=,8egkkhkk",
"----%%%%%$%$-------------=-=-o#o@@@.X#X.....X.X@XX@X+#:5wakkkhkk",
"$$-$$$$@$@$$$$%$$-$-@-@-o==o== =.oo ..........XXX.X.#=:19sskkkkk",
"$$$$@@O@o@$$$$$$$$@oo@@@oooo@.  o..  .  ..........X+X=,<19skkkhh",
"$oo$@o@oooo@@@$@@@=  @#oo  oo   .@... . .........XX+#;,,<9dkkdaa",
"$$$o@O@@o$ooo@o@ooo@o o@ @@ .@@@ =,=##@.......XXXX.+=>;::19dks99"
};
