/* XPM */
static char *result[] = {
/* columns rows colors chars-per-pixel */
"64 64 233 2 ",
"   c #3A639D",
".  c #38729B",
"X  c #2D5FB4",
"o  c #2A66A7",
"O  c #386AA5",
"+  c #3B6DAB",
"@  c #3469A9",
"#  c #3D72AD",
"$  c #3677A5",
"%  c #2864B3",
"&  c #2668BB",
"*  c #2A6ABA",
"=  c #356CBC",
"-  c #356BB7",
";  c #3C73B3",
":  c #3775BB",
">  c #446C9A",
",  c #457196",
"<  c #52799D",
"1  c #426DAC",
"2  c #436BA5",
"3  c #4273AC",
"4  c #4A73AD",
"5  c #4A7CAC",
"6  c #4977A4",
"7  c #537CA6",
"8  c #4475B3",
"9  c #4B76B4",
"0  c #4279B4",
"q  c #4B7BB4",
"w  c #4476BB",
"e  c #447ABC",
"r  c #4B7DBC",
"t  c #537EB5",
"y  c #517EBC",
"u  c #0E4DC9",
"i  c #155BCA",
"p  c #024FD7",
"a  c #0453D4",
"s  c #085CD6",
"d  c #0F56CD",
"f  c #225CC3",
"g  c #1A65CA",
"h  c #1C67C9",
"j  c #0866D8",
"k  c #1369D6",
"l  c #1A77D7",
"z  c #097DD3",
"x  c #2D69C4",
"c  c #2468C8",
"v  c #326EC6",
"b  c #2574CB",
"n  c #2979CC",
"m  c #3A73C4",
"M  c #3475CC",
"N  c #3677C9",
"B  c #2778D6",
"V  c #347AD3",
"C  c #3679D3",
"Z  c #1A7EE3",
"A  c #4C7EC2",
"S  c #427CCA",
"D  c #4379C6",
"F  c #3C8396",
"G  c #3E99AC",
"H  c #3C83B3",
"J  c #3FA4AE",
"K  c #42869D",
"L  c #46919E",
"P  c #4683A3",
"I  c #5A85AE",
"U  c #5180A7",
"Y  c #4399A8",
"T  c #4B81BC",
"R  c #4787B2",
"E  c #5282B3",
"W  c #5583BC",
"Q  c #5A85BE",
"!  c #558ABC",
"~  c #5C8CBD",
"^  c #5C87B3",
"/  c #4C9AB8",
"(  c #569EBC",
")  c #648AAB",
"_  c #628CB5",
"`  c #638DBD",
"'  c #6996BC",
"]  c #6895BB",
"[  c #42A0B2",
"{  c #248ED0",
"}  c #3C84D9",
"|  c #399CD6",
" . c #2D96D2",
".. c #1F8DDD",
"X. c #4583C4",
"o. c #4D83C3",
"O. c #4283CE",
"+. c #4B84CB",
"@. c #4A8BC7",
"#. c #5685C3",
"$. c #568AC6",
"%. c #5A8BC4",
"&. c #5386CA",
"*. c #548CCC",
"=. c #5A8CCC",
"-. c #5887C3",
";. c #4695CA",
":. c #5D92CC",
">. c #5A93C7",
",. c #4586D4",
"<. c #4A8BD6",
"1. c #4689D8",
"2. c #548CD2",
"3. c #4E92DC",
"4. c #4B99DA",
"5. c #5C94D3",
"6. c #5D98D7",
"7. c #5C9BDC",
"8. c #5495D7",
"9. c #618FC7",
"0. c #6493C4",
"q. c #6C99C4",
"w. c #6394CB",
"e. c #6399CB",
"r. c #6B9BCD",
"t. c #6A97C6",
"y. c #719FCD",
"u. c #709EC7",
"i. c #6296D2",
"p. c #659BD4",
"a. c #6A9CD3",
"s. c #649CD9",
"d. c #6A9ED9",
"f. c #6197D9",
"g. c #729FD7",
"h. c #4FA2D6",
"j. c #55ADD8",
"k. c #5CA5DD",
"l. c #54B7D7",
"z. c #4AB1D5",
"x. c #69A3CD",
"c. c #73A1CB",
"v. c #78A5CE",
"b. c #6CA0D3",
"n. c #6CA3DC",
"m. c #66AADB",
"M. c #73A4D4",
"N. c #79A6D3",
"B. c #7CABD5",
"V. c #74A5DA",
"C. c #75A9DD",
"Z. c #7BABDB",
"A. c #78A7D7",
"S. c #7BB3DD",
"D. c #7DB8DF",
"F. c #65BFD6",
"G. c #4C98E3",
"H. c #529CE4",
"J. c #5A9DE2",
"K. c #5CA7E8",
"L. c #59BAEB",
"P. c #57BAE6",
"I. c #45A6ED",
"U. c #64A3E2",
"Y. c #6DAAE5",
"T. c #69A8E5",
"R. c #75ABE3",
"E. c #7AADE1",
"W. c #72AAE4",
"Q. c #68B2E8",
"!. c #7CB4E3",
"~. c #7BB5E9",
"^. c #7EBBED",
"/. c #76B6E9",
"(. c #6CBBF4",
"). c #75BEF3",
"_. c #58C6DA",
"`. c #64C5DA",
"'. c #79C8EB",
"]. c #75D1EF",
"[. c #85ACCD",
"{. c #83AED3",
"}. c #84ADDB",
"|. c #83B2DC",
" X c #89B3DC",
".X c #89B6DA",
"XX c #90B7D9",
"oX c #85AFE0",
"OX c #83B5E4",
"+X c #84B9E5",
"@X c #8ABBE5",
"#X c #83BBEB",
"$X c #8ABEE9",
"%X c #85B5E5",
"&X c #92BEE2",
"*X c #85CBDE",
"=X c #99C2DF",
"-X c #8BC3E6",
";X c #8CC2EC",
":X c #88C6E5",
">X c #94C3E5",
",X c #93C5EC",
"<X c #94C9ED",
"1X c #9BCCEE",
"2X c #9BC6E5",
"3X c #99D3EB",
"4X c #95D2EA",
"5X c #8DC5F1",
"6X c #87C6F3",
"7X c #95CBF1",
"8X c #9CCEF2",
"9X c #94C7F1",
"0X c #9DD3F4",
"qX c #94D2F3",
"wX c #8ED4ED",
"eX c #A2CDE9",
"rX c #A6D6ED",
"tX c #A3D3F2",
"yX c #ABDBF5",
"uX c #A6D8F5",
"iX c #B3DDF5",
"pX c #B2DFF9",
"aX c #A0CEF0",
"sX c #AEE1F8",
"dX c #B6E2F6",
"fX c #B5E3F9",
"gX c #BAE5F9",
"hX c #BDE8FB",
"jX c #C5EBFB",
"kX c #CBEEFC",
"lX c #D8F5FE",
"zX c #D5F3FE",
"xX c None",
/* pixels */
"xXxXxXxXxXxXxXxXxXxXxXxXxXxXxXxXxXxXxXxXxXxXxXxXxXxXxXxXxXxXxXxXxXxXxXxXxXxXxXxXxXxXxXxXxXxXxXxXxXxX. xXxXxXxXxXxXxXxXxXxXxXxXxX",
"xXxXxXxXxXxXxXxXxX@ o o xXxXxXxXxXxXxXxXxXxXxXxXxXxXxXxXxXxXxXxXxXxXxXxXxXxXxXxXxXxXxXxXxXxXxXxXxXF F # xXxXxXxXxXxXxXxXxXxXxXxX",
"xXxXxXxXxXxXxXxX1 w - - o xXF : m ` xXxXxXxXxXxXxXxXxXxXxXxXxXxXxXxXxXxXxXxXxXxXxXxXxXxXxXxXxX, K J / ; O O   xXxXxXxXxXxXxXxXxX",
"xXxXxXxXxXxXxX, W $.: - - o G H C a.' xXxXxXxXxXxXxXxXxXxXxXxXxXxXxXxXxXxXxXxXxXxXxXxXxXxXxX+ P [ l.l.X.# 2 # + xXxXxXxXxXxXxXxX",
"xXxXxXxXxXxX' 6 >.b.r w R . [ ;.1.Y.M.xXxXxXxXxXxXxXxXxXxXxXxXxXxXxXxXxXxXxXxXxXxXxXxXxXxXxX# Y _._.P.;.; # 9 8 + xXxXxXxXxXxXxX",
"xXxXxXxXxXxXq.E V.R.*.o.$.H ( 8.7./.S.^ xXxXxXxXxXxXxXxXxXxXxXxXxXxXxXxXxXxXxXxXxXxXxXxXxX- 8 G _.].L.h.T 9 T o.; O xXxXxXxXxXxX",
"xXxXxXxXxXxXN.t.S.:Xk.e.:.R ( 6.T.#X%X] xXxXxXxXxXxXxXxXxXxXxXxXxXxXxXxXxXxXxXxXxXxXxXxXxX; 5 J _.].L.z.T q -.*.o.; xXxXxXxXxXxX",
"xXxXxXxXxXxX.X{.!.;XS./.:.! :.m.W.,X,Xu.xXxXxXxXxXxXxXxXxXxXxXxXxXxXxXxXxXxXxXxXxXxXxXxXxXw P J _.].L.h.T T >.:.=.T xXxXxXxXxXxX",
"xXxXxXxXxXxX2X&X!.;X~.6X5.%.M.W.'.7X,Xy.xXxXxXxXxXxXxXxXxXxXxXxXxXxXxXxXxXxXxXxXxXxXxXxXxXe P Y `.].L.4.#.-.-.d.i.%.xXxXxXxXxXxX",
"xXxXxXxXxXxXeXrXC.#X7XqX:.:.E.^.6X7X,XA.xXxXxXxXxXxXxXxXxXxXxXxXxXxXxXxXxXxXxXxXxXxXxXxXxXr 7 L x.'.Q.4.#.y -.E.n.p.6 xXxXxXxXxX",
"xXxXxXxXxXxXeXiX!.^.0X0X5.d.+X6XuX7X;XB.xXxXxXxXxXxXxXxXxXxXxXxXxXxXxXxXxXxXxXxXxXxXxXxXxXA U . x.:XY.7.$.t =.%XE.A.t xXxXxXxXxX",
"xXxXxXxXxXxXXXyX$X^.0X0Xp.V.$X8XsX;X^.A.xXxXxXxXxXxXxXxXxXxXxXxXxXxXxXxXxXxXxXxXxXxXxXxXxXe 6 . :.%XT.i.%.W =.&X%X}.t xXxXxXxXxX",
"xXxXxXxXxXxX[.>X<X#XyXuXR.oX$XpXfXQ.W.p.7 xXxXxXxXxXxXxXxXxXxXxXxXxXxXxXxXxXxXxXxXxXxXxXxXe 4 @ $.OXT.i.9.9.r.9X+XoXt xXxXxXxXxX",
"xXxXxXxXxXxXxX[.&X%XpXuX%X%X9XhXsX8.f.:.6 xXxXxXxXxXxXxXxXxXxXxXxXxXxXxXxXxXxXxXxXxXxXxXxX8 1 @ o.Z.R.s.r.r.g.tX%XOXt > xXxXxXxX",
"xXxXxXxXxXxXxX' }.Z.pXpX>X$XuXgX<X,.,.A xXxXxXxXxXxXxXxXxXxXxXxXxXxXxXxXxXxXxXxXxXxXxXxXxX1 + ; &.g.oXg.g.R.@XtX%XOX9 > xXxXxXxX",
"xXxXxXxXxXxXxXI y.g.uXiXtX9XaXyXC.} B v xXxXxXxXxXxXxXxXxXxX$ 5 I _ _ xXxXxXxXxXxXxXxXxXxX1 O r $.r. XC.R.%X9XtX~.Z.4   xXxXxXxX",
"xXxXxXxXxXxXxXxX' =.&XyXaX8X7X8X5.= g x xXxXxXxXxXxXxXxXxX; ! x.t.>.c.' 5 xXxXxXxXxXxXxXxXxX@ 9.w.-.}.oXR.%XaXaX#Xg.2 xXxXxXxXxX",
"xXxXxXxXxXxXxXxXt y }.2XtX8X;X,X=.f s xXxXxXxXxXxXxXxXS X.; e.:X'.e.>.c.0.0 xXxXxXxXxXxXxXxX+ N.9.y V.&XR.R.aX&X~.w.2 xXxXxXxXxX",
"xXxXxXxXxXxXxXxXxX-.0. XtX9X@XOXr xXp xXxXxXxXxXxXxXu ,.O.! Z.qX6XT.!.n.e.E xXxXxXxXxXxXxXxX0 Z.9.y r.oXR.s.@X$XoXQ   xXxXxXxXxX",
"xXxXxXxXxXxXxXxXxXt 6 u.aX$XW.Y.w xXxXxXxXxXxXxXxXxXc 3.+.t.M.^.'.).qX Xc.r 8 xXxXxXxXxXxXxXT A.9 -.9.[.g.&.J.^.Y.m xXxXxXxXxXxX",
"xXxXxXxXxXxXxXxXxXxXxX` ;X!.7.<.xXxXxXxXxXxXxXxXxXm V G.*.^ ! j.'.(.qX&X0.r ; xXxXxXxXxXxXxXW a.+ =.~ ' t.- S Y.7.c xXxXxXxXxXxX",
"xXxXxXxXxXxXxXxXxXxXxXW |.r.1.n xXxXxXxXxXxXxXxXxX+.V 3.*.U 5 k.(.(.#X2X_ ! * xXxXxXxXxXxXxXW e.8 a.t t ) xX= 5.C a xXxXxXxXxXxX",
"xXxXxXxXxXxXxXxXxXxXxXxXM.-.N k xXxXxXxXxXxXxXxXxX5.O.8.5.5 # *.K.Q.Y.>XI 9.& xXxXxXxXxXxXxXr #.1 t.3 6 xXxXxXA M xXxXxXxXxXxXxX",
"xXxXxXxXxXxXxXxXxXxXxXxX>.q - xXxXxXxXxXxXxXxXxXxXb.+.:.5.E q $.J.K.U.Z.5 e.& xXxXxXxXxXxXxXxX&.xXq.xX, xXxXxXxXf xXxXxXxXxXxXxX",
"xXxXxXxXxXxXxXxXxXxXxXxXr # - xXxXxXxXxXxXxXxXxXxXA.&.i.i.~ t.p.J.H.H.5.8 e.c xXxXxXxXxXxXxXxXe xX' xX> xXxXxXxXf xXxXxXxXxXxXxX",
"xXxXxXxXxXxXxXxXxXxXxXxX9 O xXxXxXxXxXxXxXxXxXxXxXA.=.p.d.u.}.s.J.G.1.V xXp.n xXxXxXxXxXxXxXxX; xXq.xXxXxXxXxXxXxXxXxXxXxXxXxXxX",
"xXxXxXxXxXxXxXxXxXxXxXxXxXxXxXxXxXxXxXxXxXxXxXxXxXN.i.Z.E.}.Z.=.7.3.C s xXn.C xXxXxXxXxXxXxXxX+ xXxXxXxXxXxXxXxXxXxXxXxXxXxXxXxX",
"xXxXxXxXxXxXxXxXxXxXxXxXxXxXxXxXxXxXxXxXxXxXxXxXxXy.T.@X%XOXs.5.T.G.b p xXb.C xXxXxXxXxXxXxXxXxXxXxXxXxXxXxXxXxXxXxXxXxXxXxXxXxX",
"xXxXxXxXxXxXxXxXxXxXxXxXxXxXxXxXxXxXxXxXxXxXxXxXxXw.!.<X$XZ.5.d.W.f.c d xXi.C xXxXxXxXxXxXxXxXxXxXxXxXxXxXxXxXxXxXxXxXxXxXxXxXxX",
"xXxXxXxXxXxXxXxXxXxXxXxXxXxXxXxXxXxXxXxXxXxXxXxXxX=.!.<X$XC.d.g.p.f.v f & w.C xXxXxXxXxXxXxXxXxXxXxXxXxXxXxXxXxXxXxXxXxXxXxXxXxX",
"xXxXxXxXxXxXxXxXxXxXxXxXxXxXxXxXxXxXxXxXxXxXxXxXxXX.^.;X#XW.s.=.A 9.D m - 0.w xXxXxXxXxXxXxXxXxXxXxXxXxXxXxXxXxXxXxXxXxXxXxXxXxX",
"xXxXxXxXxXxXxXxXxXxXxXxXxXxXxXxXxXxXxXxXxXxXxXxXxXr R.;X~.V.&.A A y r D : ` xXxXxXxXxXxXxXxXxXxXxXxXxXxXxXxXxXxXxXxXxXxXxXxXxXxX",
"xXxXxXxXxXxXxXxXxXT ; @ T 8.&.q xXxXxXxXxXxXxXxXxXe J.^.U.d.e A y 9 -.r A ` xXxXxXxXxXxXxXxXxXxXxX: % xX% xXxXxXxXxXxXxXxXxXxXxX",
"xXxXxXxXxXxXxXxX8.p.T e c.+XV.:.T xXxXxXxXxXxXxXxX8 } /.4.=.A N w xX-.y A ` xXxXxXxXxXxXxXxX^ ] x.%.- xXf $.w.9.xXxXxXxXxXxXxXxX",
"xXxXxXxXxXxXxXo.p.+X+.T A.$XE.n.p.~ xXxXxXxXxXxXxX9 n H.4.: +.V & xXQ r A t xXxXxXxXxXxXxX_ B.`.*Xe.: u u =.@XV.q.xXxXxXxXxXxXxX",
"xXxXxXxXxXxXxXD S.<XO.o.r.OXY.R.OXc.6 xXxXxXxXxXxXxXv B ..h xX} i xXt 9 A q xXxXxXxXxXxXxXv.=X'.>Xr.&.u u &.1X@XN.xXxXxXxXxXxXxX",
"xXxXxXxXxXxXxXW $X7X,.o.a.Z.Y.~.;X|.5 xXxXxXxXxXxXxXw h j k xXV k xXxX4 A 4 xXxXxXxXxXxXxX.X:X*XrXp.=.x u *.1X1XD._ xXxXxXxXxXxX",
"xXxXxXxXxXxXxX~ 2X7X<.2.M.V.J.5X7X-X! E xXxXxXxXxXxXw v j j n xXi xXxX4 y 4 xXxXxXxXxXxX_ =X:X:XyXA.=.2.i =.tXaX!.] xXxXxXxXxXxX",
"xXxXxXxXxXxXxXq.uXtXJ.s.{.C.K.7XtX0Xb.%.xXxXxXxXxXxXxXr c a l xXxXxXxX4 y xXxXxXxXxXxXxX] >X+X:XdXOX&.n.m d.iXuX~.u.xXxXxXxXxXxX",
"xXxXxXxXxXxXxXv.yXiX~.!.-XOXY.0XfXuXOX>.xXxXxXxXxXxXxXxXD d j N xXxXxX4 9 xXxXxXxXxXxXxX' -XS./.dX>X=.Z.9.oXhXaX!.v.< xXxXxXxXxX",
"xXxXxXxXxXxXxX{.dXhX3X<X4X:X).uXjXuXC.+.xXxXxXxXxXxXxXxXA M i M xXxXxX8 9 xXxXxXxXxXxXxXc.@Xn.U.tX,Xd.$XZ.,XjXaXD.b.U xXxXxXxXxX",
"xXxXxXxXxXxXxX.XhXjXgX3X4X:X6XhXkX0X5.v xXxXxXxXxXxXxXxXxXS v c xXxXxX8 xXxXxXxXxXxXxX7 N.OX7.J.1X#XOX8X$X1XhX1XS.C.I xXxXxXxXxX",
"xXxXxXxXxXxXxX{.dXdXjXiX4X:X0XkXjXtX6.c xXxXxXxXxXxXxXxXxXxXS c xXxXxXxXxXxXxXxXxXxXxXU Z.V.2.3.$X#X;XpX,X,XdX<XS.Z.I xXxXxXxXxX",
"xXxXxXxXxXxXxXN.dXiXjXdX4X<XfXlXgXuXU.xXxXxXxXxXxXxXxXxXxXxXD x xXxXxXxXxXxXxXxXxXxXxXI E.s.<.<.%X/.7XgX,X<XaX<Xm.n.^ xXxXxXxXxX",
"xXxXxXxXxXxXxXc.uXrXdXrX4X7XkXzXyXwXY.xXxXxXxXxXxXxXxXxXxXxXxXx xXxXxXxXxXxXxXxXxXxXxX_ n.5.N <.W.R.uXgX;X:X<X-X6.n.^ xXxXxXxXxX",
"xXxXxXxXxXxXxX:.3XuXrX3X7XyXzXzXqX'.n.xXxXxXxXxXxXxXxXxXxXxXxXx xXxXxXxXxXxXxXxXxXxXxX~ 6.+.m 2.f.R.aXdX:X+X#X+X*.8.E xXxXxXxXxX",
"xXxXxXxXxXxXxXe #X3X1X=X<XgXlXiX).(.*.xXxXxXxXxXxXxXxXxXxXxXxXX xXxXxXxXxXxXxXxXxXxXxXQ 2.M * &.5.R.;XpX'.Q.~.S.X.,.q xXxXxXxXxX",
"xXxXxXxXxXxXxX& m.;X=X,X<XgXzX7X(.K.D xXxXxXxXxXxXxXxXxXxXxXxXxXxXxXxXxXxXxXxXxXxXxXxXQ ,.b X &.w.n.!.0X`.m.m.n.: V 3 xXxXxXxXxX",
"xXxXxXxXxXxXxXxXC E. XOX;XiXkX!.Q.| xXxXxXxXxXxXxXxXxXxXxXxXxXxXxXxXxXxXxXxXxXxXxXxXxXxX} g xXW d.n.T.wX_.j.j.x.g b % xXxXxXxXxX",
"xXxXxXxXxXxXxXxXc 6.B.A.^.uXiXU.I.l xXxXxXxXxXxXxXxXxXxXxXxXxXxXxXxXxXxXxXxXxXxXxXxXxXxX+.k xXy M.V.j.'.l.| 8.>.s h xXxXxXxXxXxX",
"xXxXxXxXxXxXxXxXxXX.t.i.Y.tX2XH...j xXxXxXxXxXxXxXxXxXxXxXxXxXxXxXxXxXxXxXxXxXxXxXxXxXxXC b xX9 A.C.>.l.j. .@.%.d d xXxXxXxXxXxX",
"xXxXxXxXxXxXxXxXxX= W +.J.2X!.H.Z xXxXxXxXxXxXxXxXxXxXxXxXxXxXxXxXxXxXxXxXxXxXxXxXxXxXxXxXM xXxXb.!.$.;.z.{ e #.xXxXxXxXxXxXxXxX",
"xXxXxXxXxXxXxXxXxXxX9 M } %XV.G.k xXxXxXxXxXxXxXxXxXxXxXxXxXxXxXxXxXxXxXxXxXxXxXxXxXxXxXxXv xXxXi.E.} ;  .{ # E xXxXxXxXxXxXxXxX",
"xXxXxXxXxXxXxXxXxXxXxXxXZ d.W.} } xXxXxXxXxXxXxXxXxXxXxXxXxXxXxXxXxXxXxXxXxXxXxXxXxXxXxXxXxXxXxX+.m.T * { ..xXq xXxXxXxXxXxXxXxX",
"xXxXxXxXxXxXxXxXxXxXxXxXj M M.M } xXxXxXxXxXxXxXxXxXxXxXxXxXxXxXxXxXxXxXxXxXxXxXxXxXxXxXxXxXxXxXM s.e % z j xXxXxXxXxXxXxXxXxXxX",
"xXxXxXxXxXxXxXxXxXxXxXxXxXxXxXx xXxXxXxXxXxXxXxXxXxXxXxXxXxXxXxXxXxXxXxXxXxXxXxXxXxXxXxXxXxXxXxXg 2.; xX& j xXxXxXxXxXxXxXxXxXxX",
"xXxXxXxXxXxXxXxXxXxXxXxXxXxXxX& xXxXxXxXxXxXxXxXxXxXxXxXxXxXxXxXxXxXxXxXxXxXxXxXxXxXxXxXxXxXxXxXi o.; xXh a xXxXxXxXxXxXxXxXxXxX",
"xXxXxXxXxXxXxXxXxXxXxXxXxXxXxXxXxXxXxXxXxXxXxXxXxXxXxXxXxXxXxXxXxXxXxXxXxXxXxXxXxXxXxXxXxXxXxXxXxXq xXxXg p xXxXxXxXxXxXxXxXxXxX",
"xXxXxXxXxXxXxXxXxXxXxXxXxXxXxXxXxXxXxXxXxXxXxXxXxXxXxXxXxXxXxXxXxXxXxXxXxXxXxXxXxXxXxXxXxXxXxXxX- xXxXxXxXxXxXxXxXxXxXxXxXxXxXxX",
"xXxXxXxXxXxXxXxXxXxXxXxXxXxXxXxXxXxXxXxXxXxXxXxXxXxXxXxXxXxXxXxXxXxXxXxXxXxXxXxXxXxXxXxXxXxXxXxXxXxXxXxXxXxXxXxXxXxXxXxXxXxXxXxX",
"xXxXxXxXxXxXxXxXxXxXxXxXxXxXxXxXxXxXxXxXxXxXxXxXxXxXxXxXxXxXxXxXxXxXxXxXxXxXxXxXxXxXxXxXxXxXxXxXxXxXxXxXxXxXxXxXxXxXxXxXxXxXxXxX",
"xXxXxXxXxXxXxXxXxXxXxXxXxXxXxXxXxXxXxXxXxXxXxXxXxXxXxXxXxXxXxXxXxXxXxXxXxXxXxXxXxXxXxXxXxXxXxXxXxXxXxXxXxXxXxXxXxXxXxXxXxXxXxXxX",
"xXxXxXxXxXxXxXxXxXxXxXxXxXxXxXxXxXxXxXxXxXxXxXxXxXxXxXxXxXxXxXxXxXxXxXxXxXxXxXxXxXxXxXxXxXxXxXxXxXxXxXxXxXxXxXxXxXxXxXxXxXxXxXxX",
"xXxXxXxXxXxXxXxXxXxXxXxXxXxXxXxXxXxXxXxXxXxXxXxXxXxXxXxXxXxXxXxXxXxXxXxXxXxXxXxXxXxXxXxXxXxXxXxXxXxXxXxXxXxXxXxXxXxXxXxXxXxXxXxX"
};
