/* XPM */
static char *result[] = {
/* columns rows colors chars-per-pixel */
"64 64 203 2 ",
"   c #020303",
".  c #060708",
"X  c #070809",
"o  c #0A0C0C",
"O  c #0C0F10",
"+  c #0E1112",
"@  c #121415",
"#  c #131718",
"$  c #161A1B",
"%  c #1A1D1D",
"&  c #161817",
"*  c #191F20",
"=  c #1D2224",
"-  c #1F2729",
";  c #222525",
":  c #212728",
">  c #242A2C",
",  c #2A2D2D",
"<  c #262F30",
"1  c #282F31",
"2  c #273033",
"3  c #2B3335",
"4  c #2D3739",
"5  c #2F393B",
"6  c #323535",
"7  c #323B3C",
"8  c #3A3E3D",
"9  c #333838",
"0  c #2B302F",
"q  c #3C403F",
"w  c #333E41",
"e  c #364144",
"r  c #3A4345",
"t  c #3A4649",
"y  c #3D494C",
"u  c #374448",
"i  c #3F4E52",
"p  c #424645",
"a  c #434C4D",
"s  c #494D4C",
"d  c #424E51",
"f  c #445255",
"g  c #4B5454",
"h  c #46555A",
"j  c #49575B",
"k  c #4B5A5D",
"l  c #47585D",
"z  c #535B5B",
"x  c #515756",
"c  c #57605F",
"v  c #4D5D62",
"b  c #515F62",
"n  c #4E6065",
"m  c #526164",
"M  c #5C6464",
"N  c #54656A",
"B  c #56696E",
"V  c #5B6A6C",
"C  c #5A6768",
"Z  c #566C71",
"A  c #5A6D72",
"S  c #5D7175",
"D  c #5E747A",
"F  c #636B6B",
"G  c #636A68",
"H  c #68706F",
"J  c #616F71",
"K  c #637274",
"L  c #6C7473",
"P  c #62767A",
"I  c #65797E",
"U  c #6B7B7C",
"Y  c #6A7678",
"T  c #737C7B",
"R  c #717675",
"E  c #78807E",
"W  c #667C82",
"Q  c #6A7E83",
"!  c #6C8185",
"~  c #6C848A",
"^  c #66818A",
"/  c #738283",
"(  c #7D8585",
")  c #72868B",
"_  c #74898E",
"`  c #7C8B8B",
"'  c #7B8888",
"]  c #6D8A92",
"[  c #748C93",
"{  c #798E93",
"}  c #728E98",
"|  c #7B9195",
" . c #74939A",
".. c #7C959B",
"X. c #7D989E",
"o. c #769097",
"O. c #7D9AA2",
"+. c #7E9DA8",
"@. c #7DA1AB",
"#. c #838C8B",
"$. c #858B8A",
"%. c #849293",
"&. c #8B9594",
"*. c #849A9E",
"=. c #8D9C9B",
"-. c #869799",
";. c #939D9B",
":. c #929897",
">. c #8A908F",
",. c #94A19F",
"<. c #839DA3",
"1. c #899EA1",
"2. c #859FA8",
"3. c #85A0A6",
"4. c #8BA1A5",
"5. c #85A2AB",
"6. c #8AA4AB",
"7. c #8EA8AE",
"8. c #94A3A2",
"9. c #9BA5A3",
"0. c #95A7A9",
"q. c #93AAAC",
"w. c #9CACAC",
"e. c #9FA8A6",
"r. c #8DABB3",
"t. c #88ABB6",
"y. c #93AEB4",
"u. c #9BAFB2",
"i. c #8EB1BB",
"p. c #95B1B5",
"a. c #9BB3B5",
"s. c #94B4BC",
"d. c #9BB6BB",
"f. c #9AB9BF",
"g. c #9FB0AE",
"h. c #A3ADAA",
"j. c #A0A6A3",
"k. c #A5B1AE",
"l. c #A3B3B3",
"z. c #A2B6B9",
"x. c #A3BABC",
"c. c #ABBBBB",
"v. c #AAB7B5",
"b. c #B1BCBB",
"n. c #AAC0BE",
"m. c #B7C1BE",
"M. c #96B9C3",
"N. c #9BBBC2",
"B. c #95B6C1",
"V. c #8EB6C2",
"C. c #A3BEC2",
"Z. c #9FC3CC",
"A. c #A5C1C5",
"S. c #ACC2C3",
"D. c #A3C3CB",
"F. c #ABC6CA",
"G. c #ABC9CD",
"H. c #A5C8CF",
"J. c #B3C4C4",
"K. c #B9C4C2",
"L. c #B5CACB",
"P. c #BACDCC",
"I. c #BBC8C7",
"U. c #A6CAD3",
"Y. c #ACCDD4",
"T. c #A4C7D0",
"R. c #B1CDD1",
"E. c #BBCFD1",
"W. c #ADD1D9",
"Q. c #B3D1D6",
"!. c #BCD2D4",
"~. c #B5D5DA",
"^. c #BAD6DA",
"/. c #BCD9DD",
"(. c #B7D8DD",
"). c #BEDDE1",
"_. c #C2CDCB",
"`. c #C2C8C6",
"'. c #C7D0CE",
"]. c #C3D5D5",
"[. c #CBD6D4",
"{. c #C3D7D8",
"}. c #C3DBDD",
"|. c #CBDDDD",
" X c #C6D8D6",
".X c #D1DDDA",
"XX c #CCE0DE",
"oX c #D4E0DE",
"OX c #C5DFE2",
"+X c #C7E1E3",
"@X c #CCE2E3",
"#X c #D4E5E4",
"$X c #D7E9E7",
"%X c #DBE9E6",
"&X c #D6E8E9",
"*X c #DDECEA",
"=X c #DAE5E2",
"-X c #E3EDEB",
";X c #E6F1EE",
":X c #EAF1EE",
">X c #EAF3F0",
",X c #EFF8F4",
"<X c None",
/* pixels */
"<X<X<X<X<X<X<X<X<X<X<X<X<X<X<X<X<X<X<X<X<X<X<X<X<X<X<X<X<X<X<X<X<X<X<X<X<X<X<X<X<X<X<X<X<X<X<X<X<X<X<X<X<X<X<X<X<X<X<X<X<X<X<X<X",
"<X<X<X<X<X<X<X<X<X<X<X<X<X<X<X<X<X<X<X<X<X<X<X<X<X<X<X<X<X<X<X<X<X<X<X<X<X<X<X<X<X<X<X<X<X<X<X<X<X<X<X<X<X<X<X<X<X<X<X<X<X<X<X<X",
"<X<X<X<X<X<X<X<X<X<X<X<X<X<X<X<X<X<X<X<X<X<X<X<X<X<X<X<X<X<X<X<X<X<X<X<X<X<X<X<X<X<X<X<X<X<X<X<X<X<X<X<X<X<X<X<X<X<X<X<X<X<X<X<X",
"<X<X<X<X<X<X<X<X<X<X<X<X<X<X<X<X<X<X<X<X<X<X<X<X<X<X<X<X<X<X<X<X<X<X<X<X<X<X<X<X<X<X<X<X<X<X<X<X<X<X<X<X<X<X<X<X<X<X<X<X<X<X<X<X",
"<X<X<X<X<X<X<X<X<X<X<X<X<X<X<X<X<X<X<X<X<X<X<X<X<X<X<X<X<X<X<X<X<X<X<X<X<X<X<X<X<X<X<X<X<X<X<X<X<X<X<X<X<X<X<X<X<X<X<X<X<X<X<X<X",
"<X<X<X<X<X<X<X<X<X<X<X<X<X<X<X<X<X<X<X<X<X<X<X<X<X<X<X<X<X<X<X<X<X<X<X<X<X<X<X<X<X<X<X<X<X<X<X<X<X<X<X<X<X<X<X<X<X<X<X<X<X<X<X<X",
"<X<X<X<X<X<X<X<X<X<X<X<X<X<X<X<X<X<X<X<X<X<X<X<X<X<X<X<X<X<X<X<X<X<X<X<X<X<X<X<X<X<X<X<X<X<X<X<X<X<X<X<X<X<X<X<X<X<X<X<X<X<X<X<X",
"<X<X<X<X<X<X<X<X<X<X<X<X<X<X<X<X<X<X<X<X<X<X<X<X<X<X<X<X<X<X<X<X<X<X<X<X<X<X<X<X<X<X<X>X&X<X<X<X<X<X<X<X<X<X<X<X<X<X<X<X<X<X<X<X",
"<X<X<X<X<X<X<X<X<X<X<X<X<X<X<X<X<X<X<X<X<X<X<X<X<X<X<X<X-XL & o   b.=X'.P.'._.E.<X<X<XK.g r G <X<X<X<X<X<X<X<X<X<X<X<X<X<X<X<X<X",
"<X<X<X<X<X<X<X<X<X<X<X<X<X<X<X<X<X<X<X<X<X<X<X<X<X<X<X#X=.    . X 6 g.z.x.9.;.F &   , &         <X<X<X<X<X<X<X<X<X<X<X<X<X<X<X<X",
"<X<X<X<X<X<X<X<X<X<X<X<X<X<X<X<X<X<X<X<X<X<X<X<X<X<X-X#XL       . & 0.u.z.;.&.r @               ; <X<X<X<X<X<X<X<X<X<X<X<X<X<X<X",
"<X<X<X<X<X<X<X<X<X<X<X<X<X<X<X<X<X<X<X<X<X<X<X<X<X<X>X%X&.    . . : w.l.d.-.-.j & o o           o 8.;X<X<X<X<X<X<X<X<X<X<X<X<X<X",
"<X<X<X<X<X<X<X<X<X<X<X<X<X<X<X<X<X<X<X<X<X<X<X<X<X<X,X&XP.7 . . o $..XI.C.u.y.C.) / =.+         o M %X*X<X<X<X<X<X<X<X<X<X<X<X<X",
"<X<X<X<X<X<X<X<X<X<X<X<X<X<X<X<X<X<X<X<X<X<X<X<X<X<X>X#X|.l.-.q.L.-X:XOX{./.).).).).OX:.$       & x OX@X@X<X<X<X<X<X<X<X<X<X<X<X",
"<X<X<X<X<X<X<X<X<X<X<X<X<X<X<X<X<X<X<X<X<X<X<X<X>X>X;X+XP.F ) ~.R.OX=X{.!.^.).)./././.*X@Xg = @ $ k /./.).OX<X<X<X<X<X<X<X<X<X<X",
"<X<X<X<X<X<X<X<X<X<X<X<X<X<X<X<X<X<X<X<X<X<X<X,X>X&X&X%X`.-.z.~.R.R.K.x.F.^.).).(.Q.].'.E.J.G ; > Y 1.}.~.~.).<X<X<X<X<X<X<X<X<X",
"<X<X<X<X<X<X<X<X<X<X<X<X<X<X<X<X<X<X<X<X<X<X<X,X;X+X+X{.'.c.(.W.Q.G.a.x.F./.4.m s q p T I..X:Xh.( ` / C.Y.W.Q.<X<X<X<X<X<X<X<X<X",
"<X<X<X<X<X<X<X<X<X<X<X<X<X<X<X<X<X<X<X<X<X<X>X>X*X].S.a.&.!.OXW.G.N.d.x.F.| 4 o .   o * ( oX:XK.&.T ! s.A.U.W.<X<X<X<X<X<X<X<X<X",
"<X<X<X<X<X<X<X<X<X<X<X<X<X<X<X<X<X<X<X<X<X<X,X;X}.F.S.d.v.E.).).Q.f.| _ ! 4 o         . z `.;X*Xz.1.y.N.~ P <.<X<X<X<X<X<X<X<X<X",
"<X<X<X<X<X<X<X<X<X<X<X<X<X<X<X<X<X<X<X<X<X<X-X-X{.S.N.x.S.P.Q.N.d.I V P z &           @ b v. X@XOXF.N.{     . #.<X<X<X<X<X<X<X<X",
"<X<X<X<X<X<X<X<X<X<X<X<X<X<X<X<X<X<X<X<X<X>X;X-X!.A.d.f.J.P.Q.5.K 2 7 S k @ o     . 6 k W q.N.(./.(.D.W       @ *X<X<X<X<X<X<X<X",
"<X<X<X<X<X<X<X<X<X<X<X<X<X<X<X<X<X<X<X<X<X>X*X|.F.4...f.F.Q.H...N > 7 P K > o     , C ` l k 6.F.H.Y.H.i.      o |.%X*X-X*X<X<X<X",
"<X<X<X<X<X<X<X<X<X<X<X<X<X<X<X<X<X<X<X<X<X;X=XE.L.C.f.T.U.~.G.I V S P W Q F ;   % 7 , > + = S r.N.Z.H.H.k .   > 4.P.#X&X&X<X<X<X",
"<X<X<X<X<X<X<X<X<X<X<X<X<X<X<X<X<X<X<X<X<X%X{.0.4.A.F.Q.G.~ M e f 5.x.r.q.I.T s 6 $ o .   X $ D f.s.s.N.Z.Q.w.9 a ' z.&X&X#X;X*X",
"<X<X<X<X<X<X<X<X<X<X<X<X<X<X<X<X<X<X<X<X:X[.>.G T a.G.D w $ @ + > n p.N.Z.}.8.H r O .         5 ....<.<.N. Xm.G Y ( ;.*X=X@X*X#X",
"<X<X<X<X<X<X<X<X<X<X<X<X<X<X<X<X<X<X*X;X=Xj.H s G S._ , o       @ 2 6.f.f.XX_.$.s o           % h f k S ~ c.m.$.Q T =..X%X@XOX@X",
"<X<X%X<X<X<X<X<X<X<X<X<X<X<X<X<X<X*X;X*X'.s 8 z #.!.n % .       . = 3.A.G.+X-X[.#.; .         + 4 3 3 f F ,.I.>.T T k..X=X+X}.@X",
">X*X%X;X<X;X&X#X*X<X<X<X<X<X<X<X<X&X*X.X&.& & 9 e.}.k % o         = ..A.Q.-X-X;X'.L & .         + + $ a m / h.k.k.9.k._.OX X/.}.",
"-X@X+X@X*X&X&X&X@X@X<X<X<X<X<X<X<X<X;X|.` + $ z #X!.U = @ o     o h r.H.Q.*X&X%X%XP.8 o         . . X f m ' e.0.,.%.:.7 w.^.~. X",
">X+XW.).).@X&X*X@X+X@X<X<X<X<X<X<X<X*X!.` 3 C c.K.m K J y t k N m <.a.p.x.%X.XOX+X}.K @           . . n ..z.K.c.*.Q *.( ; ; | F.",
"*X).W.W.(.).+X+X+X+X+X<X<X<X<X<X<X<Xb.C 9 r _ >.c , g K -.5.f.M.p.5.| | ) >.c.Q.{.^.q.0 .         . o Z d.S.&.Y r r P U & O , V ",
"&X).U.U.W.).).OX+X).+X@X<X<X<X<X<X<X' p > @ & * @ @ a K O.r.Z.Z.p.S m V N g #.P./ ! p.a o         X - N { U V a & O , 3 %     = ",
" X! f d A d./.).).).+X+X*X<X<X<X<X<XT r %         . r Z n S 5.f. .h t 3 y C h.P.f v a.x % X     X @ 4 B _ b b a @ o $ @ O X   > ",
"%.4 & @ % f f.G.(.).+X).+X<X>X<X<X.X;.p ;           f ^ h B n N n 7 7 4 5 j l.J.-.| H > + o O o o - k _ [ B a : o o > $ o > 4 g ",
"c = o X   + c 1.a.R.+X+X+X*X$X$X+X#X].v.=.&         A ~ Z N 4 4 t y n m & & M 4.4.p.r % +   + 0 7 W 5.~ v y * o     @ * + 3 w b ",
"x % o       4 B ` f./.).+X&X@X$X#X%X|.#XS.=         S N Z S 5 2 A ` ..A + . p ` { y.k > % @ 0 v P i.N.k u w @         . ; w a Q ",
"/ 0 # + O & > q f | ^.).).@X$X*X*X>X-X/.F @         3 i S ] I ! M.A.7.k > % C ' E 3...K Z E D A B ) r.d e e =           ; B Y 2.",
" X( x p y 3 2 4 9 P Q.).).).$X;X;X*X|._.9 o         O > m ~ ..4.M...{ , @ = G T E q.5._ ) m i l u v [ e 3 4 2 -         = P ~ a.",
"%X Xm.k.,.g > - * = 7 I Y.(.@X;X*X|.|.`.=             X 5 N ..A.*.M C % + 8 R ( =.z.5.{ P q < i e d N w : $ > N *       d _ ) u.",
"*X%X].n.u.T 3 % .     & 7.(.XX;X#XR.|.9.&               $ g -.P.x.1.) > % z >.9.c.n.d.5...B N E t i j y w : 1 ..~ d w v 6.y.q.M.",
";X%XP.0.#.E c -         k 7.^.XX|.!.c.#.& .     . .     . = q a -.7.u % % G &.k.c.J.H.f.f.5.) ) v h f d y t d 2.6.[ Q <.r.<.r.C.",
"&X|.d.| E P S 5 $     X # q n.P.;.L z C % o     o .       X & = t S * + & s $.,.k.L.p...6.v 4 2 h h j t g b W y.<.[ W [ { b ) y.",
"@X|.6.E E D _ v h U $.&   + E ,.r = @ $ > 9 9 5 = .         . + - t + o o @ x ,.a.E 3 - 4 $ + + t j j N Q *.6.B.6.Q W _ *.Q { 0.",
"@X(.r.~ D I N y ' 9.m.> + o H c @ o o o = ` ` , +             . > y 3 2 @   0 w.-.>     . $ O + w t w f o.6.2.2.k b W Q v B [ <.",
"Y.W.y._ h i - - T ' #.0 @ $ E 7 o X X o % v.&.0 @             X y ~ W E g 9 G w.P @       > < - 1 y w W r.y.t...* < W K 4 b { 6.",
"W.U.3.~ v n i k ) ` c < * * z 3 o     X 0 I.=.q =             < ! 3.3.k.&.#.&.,.E 6 X   O 4 u > w h v W v f W 6.A w w 4 > v r.N.",
"Y.Z.O._ D _ O.| / | t < < > f r +     . p _.v.s 6 + .     . X N X.5.a.v.,.e.,.1.S u - * > e y q w N Q b w < w 2.B.f * + * 1 Q C.",
"Y.A.r.{ ~ | 1.P N B y > 3 a z g ; o @ $ p >.[.( r 0 = 3 * 3 h ~ X.O.d.n.9.h.0.d.B = + X o # > 4 y *.2.h 1 < < <.N.w o . o # j 0.",
"Y.H.d.^ B S J d f n j n B K u * O . @ % 6 p ( ;.G ,.1.X.! ~ ~ _ o...6.=.9 F n.n.j O         @ O * w 2.A w 1 h <.Q w . . . # w F ",
"Y.Z.*.y * * 7 > 2 5 t A Q f * O X . o 0 0 , s x q p a j B o.S N B h g s = c g.z.d X         O X @ # B B w w ..W w w # . * 2 w d ",
"Y.q._ < o . 5 = = = 7 k E 3 + + o . X 0 0 6 p 0 ; + o + < k u > 3 5 7 , 9 G =.n.C o         # O O O y w # # W W i v l w 7 r p V ",
"T.i.*.x = > S f 3 # + - g > o O + o + q p G x & o       % e - % < 2 > & 0 q #.U d & .     @ b r = = t w . . f Q d * w Z N N A R ",
"H.N.x.3.W _ 7.} 5 o     * = o o X X @ r L H y +         @ 5 = = 3 < 0 * 0 0 V k a > ; > > w P Q d w p w o . w W t . d 2...Q 1 % ",
"T.~.G.Z.M.s.s.i.5 .     o = e < o X * 6 q - @ X         = t = = - > L g 9 g c r 3 & $ 2 w * * S N w 3 w h j f W A f [ M.y.Q O   ",
"Y.Q.Z.r.r.y.6.X.q X   . X - N n % O * @ O o X .       # I y = % % % R ,.9.=.j , = O # = d +   N W N j W Q Q W W P S 1.C.2.O.< o ",
"Y.N.i.r.+.O.O.O.i # o o + t D D < * * o . o X X o < A _ i.j - $ @ * F ,.P.w.z r y * # < W v j Q Q <.*.2.B.6.} K B W 8.q.1.2.g : ",
"M.s.} W O.+.r.5.^ 5 O o $ B ~ I i q 2 2 - * # # 3 n [ t.s.Z 4 & # % = > r M 7 r [ A b W o.<.6.t.i.B.B.B.i.5.<.P K Q =.h.m.e.r ; ",
" .Z e w 5 v S W Z u + o = ^  .} }  .O. .N 5 2 u N Z X.t.5.f + . . . . . X & & - ) [ _ ..<.s.s.r.<._ ..6...+.! e 3 4 p H %.H 3 ; ",
"o.y * $ + $ u N k B 2 = 3 ..i.7.O.] W Z i e i B B v ^ W N - .         .     + = Q ] ] W ..2...~ P h v W P ..7 @ o X X @ , ; @ % ",
"] e O o o o < e 5 l n ] ..s.s.^ Z i 2 2 * = t ^ E Z W S u @                 = < Z b W W ) Q P A 4 $ $ > 4 t + .           X   + ",
"W - o . . . + = $ 5 y O.i.Z.s.] n i - - $ $ i ^ ^ ^ Z n u = .     . . .   X = - 4 < f D A S P y @ . . O # # .               o ; ",
"Z < +         o # - e ^ t.V.M.@.Z i 2 - 2 l  .@.} ] D n u - + o + 3 5 $ X + $ # + O - v Z W Q w O X . o O o .               & R ",
"Z < o       . X @ - u } O.t.Z.t.} W ~ ]  .5.V.@. . .] W Z n u y i l k y - - 5 % O o * h A S ~ y O O O o @ @ o .   @ 0 0 & ; p ,.",
"O.5 o     . . O * l ^ @.5.M.V.V.t.} @.V.V.V.@.@. .@.@.] ) ^ D ^ ^ I W D ~ W W u + + t N Z Q [ W - O O $ = d r y m z C G L L U w."
};
