/* XPM */
static char *result[] = {
/* columns rows colors chars-per-pixel */
"64 64 47 1 ",
"  c #6DCBEE",
". c #73CCED",
"X c #7CCEEC",
"o c #7FD0EE",
"O c #64CCF2",
"+ c #6ACDF1",
"@ c #72CFF2",
"# c #7ECFF1",
"$ c #75D0F3",
"% c #7CD2F2",
"& c #83CEEB",
"* c #8BCFE8",
"= c #84D1EE",
"- c #8ED3ED",
"; c #94D4ED",
": c #9BD5EC",
"> c #9CD8EF",
", c #87CFF6",
"< c #8ECCF6",
"1 c #92CCF3",
"2 c #83D4F2",
"3 c #8CD6F2",
"4 c #8DD8F4",
"5 c #93D7F0",
"6 c #9AD2F2",
"7 c #93D9F3",
"8 c #9CDBF3",
"9 c #A2D6EC",
"0 c #A8D7E8",
"q c #A3D9EE",
"w c #ACDBED",
"e c #B4DDED",
"r c #BADEEC",
"t c #A2D4F1",
"y c #A3DCF2",
"u c #ABDEF1",
"i c #B1DFF1",
"p c #BBE0EE",
"a c #A7E0F5",
"s c #ABE0F4",
"d c #B5E1F2",
"f c #BAE3F2",
"g c #B3E5F8",
"h c #C2E5F4",
"j c #C9E8F5",
"k c #CBEBF8",
"l c None",
/* pixels */
"llllllllllllllllllllllllllllllllllllllllllllllllllllllllllllllll",
"llllllllllllllllllllllllllllllllllllllllllllllllllllllllllllllll",
"llllllllllllllllllllllllllllllllllllllllllllllllllllllllllllllll",
"llllllllllllllllllllllllllllllllllllllllllllllllllllllllllllllll",
"llllllllllllllllllllllllllllllllllrellllllllllllllllllllllllllll",
"llllllllllllllllllllllllllllllll8u9lllllllllllllllllllllllllllll",
"lllllllllllllllllllllllllll6<,yyt1llllllllllllllllllllllllllllll",
"llllllllllllllllllllllllllq8tyhi6ttuulllllllllllllllllllllllllll",
"llllllllllllllllllllllllllwtt&2d3#ll0wllllllllllllllllllllllllll",
"lllllllllllllllllllllllllllll@@d9#llllllllllllllllllllllllllllll",
"lllllllllllllllllllllllllllll$7h8;ylllllllllllllllllllllllllllll",
"lllllllllllllllllllllllllllll7o4i%:lllllllllllllllllllllllllllll",
"llllllllllllllllllllllllllll72@%rXllllllllllllllllllllllllllllll",
"lllllllllllllllllllllllllllll3+8wlllllllllllllllllllllllllllllll",
"llllllllllllllllllllllllllllll@d*lllllllllllllllllllllllllllllll",
"llllllllllllllllllllllllllllll7e lllllllllllllllllllllllllllllll",
"lllllllllllllllllllllllllllllOw*llllllllllllllllllllllllllllllll",
"llllllllllllllllllllllllllllO4h2+lllllllllllllllllllllllllllllll",
"llllllllllllllllllllllllllll4:>d7lllllllllllllllllllllllllllllll",
"lllllllllllllllllllllllllll4w O7f4llllllllllllllllllllllllllllll",
"llllllllllllllllllllllllllld;ll$kd7lllllllllllllllllllllllllllll",
"llllllllllllllllllllllllll8d.ll+gd=:qlllllllllllllllllllllllllll",
"lllllllllllllllllllllllll%f:lll+4h%lllllllllllllllllllllllllllll",
"llllllllllllllllllllllll2aelllll2kylllllllllllllllllllllllllllll",
"llllllllllllllllllllll7wwe9lllll7fi3llllllllllllllllllllllllllll",
"llllllllllllllllllll4qe;llllllll4ds;llllllllllllllllllllllllllll",
"lllllllllllllllllll3q:llllllllll4d5:llllllllllllllllllllllllllll",
"lllllllllllllll22-::llllllllllll4d2wllllllllllllllllllllllllllll",
"lllllllllllllll32.lllllllllllllly0$wqlllllllllllllllllllllllllll",
"lllllllllllllll2llllllllllllllllf;@-yuqlllllllllllllllllllllllll",
"lllllllllllllll3lllllllllllllll$f&ll::llllllllllllllllllllllllll",
"lllllllllllllll;lllllllllllllll4p.llllllllllllllllllllllllllllll",
"lllllllllllll3;lllllllllllllllls0lllllllllllllllllllllllllllllll",
"llllllllllll7;llllllllllllllll8rXlllllllllllllllllllllllllllllll",
"llllllllll7:lllllllllluqylllO4r&llllllllllllulllllllllllllllllll",
"lllllllll8;lllllllllldllwewuaf&lllllllllllllllllllllllllllllllll",
"lllllllll>lllllllllllllllql-qf$lllllllllllllllllllllllllllllllll",
"lllllllly7llllllllllllllllll$fu$llllllllllllllllllllllllllllllll",
"lllllllly>lllllllllllllllllllajqllllllllllllllllllllllllllllllll",
"llllllll87lwlllllllllllllllllyf;tlllllllllllllllllllllllllllllll",
"llllllll78llllllllllllllllll$gp&ydllllllllllllllllllllllllllllll",
"llllllllltllllllllllllllllll2j;l8dllllllllllllllllllllllllllllll",
"lllllllll8llllllllllllllllll8j4llwllllllllllllllllllllllllllllll",
"llllllllllilllllllllllllllll7k>lllllllllllllllllllllllllllllllll",
"llllllllllllllllllllllllllll2aw$llllllllllllllllllllllllllllllll",
"llllllllllllllllllllllllllll%%d%llllllllllllllllllllllllllllllll",
"lllllllllllllllllllllllllllll+y;Olllllllllllllllllllllllllllllll",
"lllllllllllllllllllllllllllllO7h2lllllllllllllllllllllllllllllll",
"lllllllllllllllllllllllllllll$s;:2llllllllllllllllllllllllllllll",
"llllllllllllllllllllllllllll-swO@84lllllllllllllllllllllllllllll",
"llllllllllllllllllllllllllly;a;+l%sullllllllllllllllllllllllllll",
"lllllllllllllllllllllllllleq$t-lll5ullllllllllllllllllllllllllll",
"llllllllllllllllllllllllllll$y=llllullllllllllllllllllllllllllll",
"lllllllllllllllllllllllllllll>Xlllllllllllllllllllllllllllllllll",
"lllllllllllllllllllllllllllll82lllllllllllllllllllllllllllllllll",
"lllllllllllllllllllllllllllll83lllllllllllllllllllllllllllllllll",
"lllllllllllllllllllllllllllll37lllllllllllllllllllllllllllllllll",
"llllllllllllllllllllllllllllll4lllllllllllllllllllllllllllllllll",
"llllllllllllllllllllllllllllllllllllllllllllllllllllllllllllllll",
"llllllllllllllllllllllllllllllllllllllllllllllllllllllllllllllll",
"llllllllllllllllllllllllllllllllllllllllllllllllllllllllllllllll",
"llllllllllllllllllllllllllllllllllllllllllllllllllllllllllllllll",
"llllllllllllllllllllllllllllllllllllllllllllllllllllllllllllllll",
"llllllllllllllllllllllllllllllllllllllllllllllllllllllllllllllll"
};
