/* XPM */
static char *result[] = {
/* columns rows colors chars-per-pixel */
"64 60 240 2 ",
"   c #3D639B",
".  c #3B7297",
"X  c #1B5BBF",
"o  c #315EB2",
"O  c #2E66A6",
"+  c #3B6AA4",
"@  c #3D6CAB",
"#  c #3567A7",
"$  c #3D71AD",
"%  c #3A78A3",
"&  c #2C63B3",
"*  c #2A68BA",
"=  c #3A6CB5",
"-  c #3A6BB9",
";  c #3467B7",
":  c #3A71B3",
">  c #3E73BC",
",  c #3474B9",
"<  c #466A9B",
"1  c #54789C",
"2  c #476F94",
"3  c #687A93",
"4  c #446DA5",
"5  c #436DAC",
"6  c #466BA4",
"7  c #4E7DA3",
"8  c #4372AC",
"9  c #4B72AB",
"0  c #4C7CAC",
"q  c #4876A5",
"w  c #5379A8",
"e  c #4575B2",
"r  c #4C74B2",
"t  c #447AB5",
"y  c #4B7AB3",
"u  c #4373BA",
"i  c #457ABC",
"p  c #4C7BBC",
"a  c #4976BA",
"s  c #547DB4",
"d  c #517CBA",
"f  c #456FB3",
"g  c #164DC8",
"h  c #0B57CE",
"j  c #1959CA",
"k  c #054ED6",
"l  c #0A58D6",
"z  c #115CD3",
"x  c #255AC3",
"c  c #1D66CA",
"v  c #0A68DB",
"b  c #1B67D7",
"n  c #1A72D4",
"m  c #0F79D4",
"M  c #2364C4",
"N  c #2967CA",
"B  c #3269C5",
"V  c #386EC2",
"C  c #3269C4",
"Z  c #2973C9",
"A  c #3C73C4",
"S  c #3876CB",
"D  c #2775D5",
"F  c #397AD3",
"G  c #3778D3",
"H  c #1976E2",
"J  c #457DC2",
"K  c #4B7CC3",
"L  c #447ECA",
"P  c #4577C7",
"I  c #507DC1",
"U  c #3F8395",
"Y  c #3E97AD",
"T  c #3F88BD",
"R  c #46899C",
"E  c #49949D",
"W  c #4484A9",
"Q  c #5A83AC",
"!  c #5882AB",
"~  c #4598A6",
"^  c #4F83B4",
"/  c #4C81BC",
"(  c #4C8AB4",
")  c #5684B4",
"_  c #5E89B2",
"`  c #5483BC",
"'  c #5A84BC",
"]  c #5D8BBB",
"[  c #5989BA",
"{  c #569EB9",
"}  c #4C9ABF",
"|  c #638BB3",
" . c #638CBC",
".. c #6A96BC",
"X. c #638CAD",
"o. c #44A5B6",
"O. c #41A2AC",
"+. c #1684D0",
"@. c #268ACF",
"#. c #3A81D7",
"$. c #3D9AD7",
"%. c #2E95D0",
"&. c #298FE9",
"*. c #4C83C3",
"=. c #4382CE",
"-. c #4C83CB",
";. c #4786C6",
":. c #5485C4",
">. c #5986C2",
",. c #5689C6",
"<. c #5B8DC5",
"1. c #5385C9",
"2. c #548CCB",
"3. c #5A8ECC",
"4. c #5886CA",
"5. c #4892C9",
"6. c #5D92C4",
"7. c #5492CE",
"8. c #5D92CD",
"9. c #5999C0",
"0. c #4584D2",
"q. c #4E8EDB",
"w. c #4A88D5",
"e. c #568CD1",
"r. c #4B98D9",
"t. c #5C93D2",
"y. c #5392DA",
"u. c #5999D8",
"i. c #628EC8",
"p. c #6392C4",
"a. c #6C99C4",
"s. c #6294CC",
"d. c #6996CC",
"f. c #649ACA",
"g. c #6C9CCC",
"h. c #6997C4",
"j. c #719DC5",
"k. c #719DCF",
"l. c #6295D4",
"z. c #649BD4",
"x. c #6A9CD3",
"c. c #639BDB",
"v. c #6A9ED9",
"b. c #6196D9",
"n. c #729FD6",
"m. c #55ABD7",
"M. c #56BBD8",
"N. c #4AB3D3",
"B. c #6AA4CC",
"V. c #73A1CC",
"C. c #7AA7CE",
"Z. c #6CA1D4",
"A. c #64A2DC",
"S. c #6CA3DB",
"D. c #67AADC",
"F. c #73A4D4",
"G. c #7AA4D2",
"H. c #7CABD5",
"J. c #73A6DC",
"K. c #75ABDC",
"L. c #7CACDB",
"P. c #76A8D8",
"I. c #64B4D4",
"U. c #7AB6DB",
"Y. c #4B97E3",
"T. c #539CE4",
"R. c #5B9CE0",
"E. c #5DA2E2",
"W. c #5EABEA",
"Q. c #59BAEB",
"!. c #45A5ED",
"~. c #64A3E2",
"^. c #6BAAE3",
"/. c #6BA7E5",
"(. c #74A7E1",
"). c #74ACE3",
"_. c #7AACE1",
"`. c #6AB4E7",
"'. c #7DB4E3",
"]. c #7DBCE3",
"[. c #74B4EA",
"{. c #7AB4E9",
"}. c #7DBAEC",
"|. c #74B7E8",
" X c #6BBAF4",
".X c #75BEF4",
"XX c #59C9DB",
"oX c #64C5D9",
"OX c #7BC6E7",
"+X c #79D8F2",
"@X c #74CBED",
"#X c #85ADCD",
"$X c #85ACDA",
"%X c #83B4DD",
"&X c #89B5DA",
"*X c #93B9DC",
"=X c #85AEE0",
"-X c #82B4E4",
";X c #85BAE5",
":X c #8BBCE5",
">X c #83BBEA",
",X c #89BDE9",
"<X c #85B6E6",
"1X c #93BFE4",
"2X c #9AC3DE",
"3X c #89CDDE",
"4X c #8CC2EC",
"5X c #89C6E6",
"6X c #92C3E5",
"7X c #93C5EC",
"8X c #93CAEC",
"9X c #9CCBED",
"0X c #97C9E5",
"qX c #9BD2EC",
"wX c #98D2E8",
"eX c #83C2F2",
"rX c #8EC4F0",
"tX c #95CCF2",
"yX c #9CCDF2",
"uX c #93C6F1",
"iX c #9BD1F4",
"pX c #99D5F6",
"aX c #8ED3EC",
"sX c #A1CCE8",
"dX c #A8D8EE",
"fX c #A1CFF1",
"gX c #A4D3F3",
"hX c #ACDBF5",
"jX c #ADDEF9",
"kX c #A7D8F6",
"lX c #B3DCF5",
"zX c #B1DEF9",
"xX c #AEE1F8",
"cX c #B6E3FA",
"vX c #BBE5FA",
"bX c #B8E4F7",
"nX c #C3EBFC",
"mX c #CCEDFB",
"MX c #D7F5FE",
"NX c None",
/* pixels */
"NXNXNXNXNXNXNXNXNXNXNXNXNXNXNXNXNXNXNXNXNXNXNXNXNXNXNXNXNXNXNXNXNXNXNXNXNXNXNXNXNXNXNXNXNXNXNXNXNXNXNXNXNXNXNXNXNXNXNXNXNXNXNXNX",
"NXNXNXNXNXNXNXNXNXNXNXNXNXNXNXNXNXNXNXNXNXNXNXNXNXNXNXNXNXNXNXNXNXNXNXNXNXNXNXNXNXNXNXNXNXNXNXNXNXNXNXNXNXNXNXNXNXNXNXNXNXNXNXNX",
"NXNXNXNXNXNXNXNXNXNXNXNXNXNXNXNXNXNXNXNXNXNXNXNXNXNXNXNXNXNXNXNXNXNXNXNXNXNXNXNXNXNXNXNXNXNXNXNXNXNXNXNXNXNXNXNXNXNXNXNXNXNXNXNX",
"NXNXNXNXNXNXNXNXNXNXNXNXNXNXNXNXNXNXNXNXNXNXNXNXNXNXNXNXNXNXNXNXNXNXNXNXNXNXNXNXNXNXNXNXNXNXNXNXNXNXNXNXNXNXNXNXNXNXNXNXNXNXNXNX",
"NXNXNXNXNXNXNXNXNXNXNXNXNXNXNXNXNXNXNXNXNXNXNXNXNXNXNXNXNXNXNXNXNXNXNXNXNXNXNXNXNXNXNXNXNXNXNXNXNXNXNXNXNXNXNXNXNXNXNXNXNXNXNXNX",
"NXNXNXNXNXNXNXNXNXNXNXNXNXNXNX; NXNXNXNXNXNXNXNXNXNXNXNXNXNXNXNXNXNXNXNXNXNXNXNXNXNXNXNXNXNXNXNXNXNXNXNXNXNXNXNXNXNXNXNXNXNXNXNX",
"NXNXNXNXNXNXNXNXNXNXk c NXNXy NXNXNXNXNXNXNXNXNXNXNXNXNXNXNXNXNXNXNXNXNXNXNXNXNXNXNXNXNXNXNXNXNXNXNXNXNXNXNXNXNXNXNXNXNXNXNXNXNX",
"NXNXNXNXNXNXNXNXNXNXl M NX$ 1.j NXNXNXNXNXNXNXNXNXNXNXNXNXNXNXNXNXNXNXNXNXNXNXNXNXNXNXNXNXNXNXNX* NXNXNXNXNXNXNXNXNXNXNXNXNXNXNX",
"NXNXNXNXNXNXNXNXNXNXv Z O t t.Z NXNXNXNXNXNXNXNXNXNXNXNXNXNXNXNXNXNXNXNXNXNXNXNXNXNXNXNXNXNXNXS B g.N l NXNXNXNXNXNXNXNXNXNXNXNX",
"NXNXNXNXNXNXNXNXy NXm @.* i A.L NXNXNXNXNXNXNXNXNXNXNXNXNXNXNXNXNXNXNXNXNXNXNXNXNXNXNXNXNXNXNXq.#.J.e.H NXNXNXNXNXNXNXNXNXNXNXNX",
"NXNXNXNXNXNXNXNXs + +.%., J ).8.NXNXB NXNXNXNXNXNXNXNXNXNXNXNXNXNXNXNXNXNXNXNXNXNXNXNXNXNXNXNXb Y.S.=X#.Z r NXNXNXNXNXNXNXNXNXNX",
"NXNXNXNXNXNXNXNX` t @.N.5.*.'.x.NXNXG NXNXNXNXNXNXNXNXNXNXNXNXNXNXNXNXNXNXNXNXNXNXNXNXNXNXNXNXH T.K.1XT.L d - NXNXNXNXNXNXNXNXNX",
"NXNXNXNXNXNXh h <.;.%.m.m.6.K.F.9 NXZ F NXNXNXNXNXNXNXNXNXNXNXNXNXNXNXNXNXNXNXNXNXNXNXNXNXNXz &.T.1XfX/.8.p.J NXNXNXNXNXNXNXNXNX",
"NXNXNXNXNXNXM z 6.7.$.M.OXm.J.n.d NXb -.NXNXNXNXNXNXNXNXNXNXNXNXNXNXNXNXNXNXNXNXNXNXNXNXNXNXn !.~.lXgX}.F.H.t.M NXNXNXNXNXNXNXNX",
"NXNXNXNXNX& Z c B.m.m.M.aXD.S.x.` NXc =.NXNXNXNXNXNXNXNXNXNXNXNXNXNXNXNXNXNXNXNXNXNXNXNXNXNX$.W.[.mXlX,X%X&X).F NXNXNXNXNXNXNXNX",
"NXNXNXNXNX8 F , J.A.D.oXpX'.S.s.1.o Z 0.' NXNXNXNXNXNXNXNXNXNXNXNXNXNXNXNXNXNXNXNXNXNXNXNXJ W. XtXMXcX8X6X2X4X~.* NXNXNXNXNXNXNX",
"NXNXNXNXNXy w.;.U.'.`.OXxX4X(.t.1.; S e.[ NXNXNXNXNXNXNXNXNXNXNXo NXNXNXNXNXNXNXNXNXNXNXNX7.[..XlXMXcX8X2XsXwXeXi NXNXNXNXNXNXNX",
"NXNXNXNXNX) t.2.;X,X;X5XbXgX).b.e.A -.b.] NXNXNXNXNXNXNXNXNXNXNX; NXNXNXNXNXNXNXNXNXNXNXNXS.@XtXMXMXkX8XwXdXdXqXs.NXNXNXNXNXNXNX",
"NXNXNXNXNX_ A.A.6X8X5X4XvXgX).(.w.L t.J.| NXNXNXNXNXNXNXNXNXNXNXB NXNXNXNXNXNXNXNXNXNXNXNX/.pXjXMXnX8XaXdXbXdXhXV.NXNXNXNXNXNXNX",
"NXNXNXNXNX_ P.D.8XgX7X7XcX8X{.>Xw.w.v._.! NXNXNXNXNXNXNXNXNXNXNXB P NXNXNXNXNXNXNXNXNXNXNX~.kXvXMXjX5XwXbXmXlXbXH.NXNXNXNXNXNXNX",
"NXNXNXNXNXQ L.K.9XcX7X7XkX,X>X4Xy.y._.H.7 NXNXNXNXNXNXNXNXNXNXNXM P NXNXNXNXNXNXNXNXNXNXM t.iXmXnXtX5XaXdXnXvXvX#XNXNXNXNXNXNXNX",
"NXNXNXNXNX! J.U.9XnX9X<X7X(.,XfXR.c.;XV.1 NXNXNXNXNXNXNXf NXNXNXZ N L NXNXNXNXNXNXNXNXNXP t.fXmXcX.X5XwXaXxXnXvX&XNXNXNXNXNXNXNX",
"NXNXNXNXNX1 F.U.gXnX,Xv.<Xl.7XlX^.K.:Xj.NXNXNXNXNXNXNXr 9 NXNXNXA h N K NXNXNXNXNXNXNXNX3.,XjXvXiX[.;XwX;X4XcXxXC.NXNXNXNXNXNXNX",
"NXNXNXNXNXNXV.|.gXcXn.I J.I :XvX].].6X..NXNXNXNXNXNXNXa 9 NXNXNXNXn k V p NXNXNXNXNXNXNX6.K.fXkXiX~.K.%XS.~.hXhXV.NXNXNXNXNXNXNX",
"NXNXNXNXNXNX..'.fXdX3.x l.4.L.lX5X5X6XX.NXNXNXNXNXNX6 d 9 NXNXj NXZ v z u a NXNXNXNXNXNX) <.8XiXuXu.J.G.e.q.yX9X] NXNXNXNXNXNXNX",
"NXNXNXNXNXNX| ].9X9X1.g S s.x.dX3X3X&XNXNXNXNXNXNXNX9 I 9 NXNXb F NXn v M a NXNXNXNXNXNXNX0 %X4X}./.J.x.1.0.tX6X' NXNXNXNXNXNXNX",
"NXNXNXNXNXNXNXH.4XfX-.g g ,.g.wX3X6XC.NXNXNXNXNXNXNXy I r s NXj #.NXc H D - NXNXNXNXNXNXNXq G.>X)./.'.g.*.=.8X'.i NXNXNXNXNXNXNX",
"NXNXNXNXNXNXNXa.K.1Xe.g g > f.3XoXH.| NXNXNXNXNXNXNXs I p ' NX* G -., r.Y.Z r NXNXNXNXNXNXNX] Z.S._.,XG./ -.;Xv.K NXNXNXNXNXNXNX",
"NXNXNXNXNXNXNXNX .s.,.x NX; <.B...] NXNXNXNXNXNXNXNX' I d >.NX- S K 3.r.[.#.e NXNXNXNXNXNXNXNX/ t.K.,XV.i / Z.7.NXNXNXNXNXNXNXNX",
"NXNXNXNXNXNXNXNXNXNXNX& NX& > NXNXNXNXNXNXNXNXNXNXNX .I p >.r a K a x.~.}.R.i NXNXNXNXNXNXNXNXNXy 1.t./ # : / NXNXNXNXNXNXNXNXNX",
"NXNXNXNXNXNXNXNXNXNXNXNXNXNXNXNXNXNXNXNXNXNXNXNXNXNX .u P p ' I I 4.J.{.4X).i NXNXNXNXNXNXNXNXNXNXNXNXNXNXNXNXNXNXNXNXNXNXNXNXNX",
"NXNXNXNXNXNXNXNXNXNXNXNXNXNXNXNXNXNXNXNXNXNXNXNXNXu p.; V P i.I 4.v.).>XrX].*.NXNXNXNXNXNXNXNXNXNXNXNXNXNXNXNXNXNXNXNXNXNXNXNXNX",
"NXNXNXNXNXNXNXNXNXNXNXNXNXNXNXNXNXNXNXNXNXNXNXNXNXG s.* x B l.v.n.v.J.,X8X'.3.NXNXNXNXNXNXNXNXNXNXNXNXNXNXNXNXNXNXNXNXNXNXNXNXNX",
"NXNXNXNXNXNXNXNXNXNXNXNXNXNXNXNXNXNXNXNXNXNXNXNXNXG z.NXz N c.(.v.t.L.:X7X).d.NXNXNXNXNXNXNXNXNXNXNXNXNXNXNXNXNXNXNXNXNXNXNXNXNX",
"NXNXNXNXNXNXNXNXNXNXNXNXNXNXNXNXNXNXNXNXNXNXNXNXNXG Z.NXk D Y.~.e.v.%X<X-Xv.V.NXNXNXNXNXNXNXNXNXNXNXNXNXNXNXNXNXNXNXNXNXNXNXNXNX",
"NXNXNXNXNXNXNXNXNXNXNXNXNXNXNXNX@ NXNXNXNXNXNXNXNXG v.NXb L q.u.3.$XH.J.F.8.G.NXNXNXNXNXNXNXNXNXNXNXNXNXNXNXNXNXNXNXNXNXNXNXNXNX",
"NXNXNXNXNXNXNXNXNXNXNXNXNXNX..NXu NXNXNXNXNXNXNXNXZ f.NX0.q.Y.c.v.$Xh.l.l.4.P.NXNXNXNXNXNXNXNXNXNXNX+ e NXNXNXNXNXNXNXNXNXNXNXNX",
"NXNXNXNXNXNXNXx NXNXNXNX2 NX..NXp NXNXNXNXNXNXNXNX* f.e v.R.T.E.8.) ) t.s.-.F.NXNXNXNXNXNXNXNXNXNX; 8 :.NXNXNXNXNXNXNXNXNXNXNXNX",
"NXNXNXNXNXNXNXN u NXNXNX< 8 a.4 :.t NXNXNXNXNXNXNX* p.! &X/.W.R.*.$ 0 t.t.;.z.NXNXNXNXNXNXNXNXNXz : ` g.NXNXNXNXNXNXNXNXNXNXNXNX",
"NXNXNXNXNXNXk G 2.; NX3 w 0 x.e <.` NXNXNXNXNXNXNX* ] _ sX[. X Xu.q 7 3.y.#.1.NXNXNXNXNXNXNXNXNXD #.p.L.s NXNXNXNXNXNXNXNXNXNXNX",
"NXNXNXNXNXNXj y.~.A ;  . .' s.: g.' NXNXNXNXNXNXNX= /  .2XtX X Xm.^ ! 2.Y.G A NXNXNXNXNXNXNXNXNX0.y.K.:X' NXNXNXNXNXNXNXNXNXNXNX",
"NXNXNXNXNXNXA ^.{.y.I n.#Xi.>.8 P./ NXNXNXNXNXNXNXe p V.*XpX.X@X[.g.a.-.y.N NXNXNXNXNXNXNXNXNXu A./.,X9Xa.< Q NXNXNXNXNXNXNXNXNX",
"NXNXNXNXNX  ` '.,X<Xb.(.$Xd.d ' L.t NXNXNXNXNXNXNXNX) f.S.].`.eXpX%X[ =.w.g NXNXNXNXNXNXNXk NXp '.<XuXfX$X .>.NXNXNXNXNXNXNXNXNX",
"NXNXNXNXNX6 p.{.1XfX(.(.1Xn.d i.G.@ NXNXNXNXNXNXNXNXt p.V.6.8.eX5Xf.: *.P NXNXNXNXNXNXNXNXl x ,.7XrXyXgX6XH.d s NXNXNXNXNXNXNXNX",
"NXNXNXNXNX6 F.{.yXfX<X(.=X$X>.s.i.# NXNXNXNXNXNXNXNXNX0 ..V.6.f.B.` : NXNXNXNXNXNXNXNXNXC c - t.yXuX9XfXkX1X4...NXNXNXNXNXNXNXNX",
"NXNXNXNX  9 L.'.gXuX=X(.J.&Xd.,.p + 5 NXNXNXNXNXNXNXNXNXNXX.| Q 0 % NXNXNXNXNXNXNXNXNXNXV D =.).hXyXuXfXlXkXn.k.Q NXNXNXNXNXNXNX",
"NXNXNXNX< r -X<XgX<XJ.n.n.=Xn.*.$ @ 5 NXNXNXNXNXNXNXNXNXNXNXNXNXNXNXNXNXNXNXNXNXNXNXNXNXK w.w.tXvXgX,X1XzXzXL.$X..NXNXNXNXNXNXNX",
"NXNXNXNX< s <X<XfXn.d.d.c.(.L.*.# 5 e NXNXNXNXNXNXNXNXNXNXNXNXNXNXNXNXNXNXNXNXNXNXNXNXq 8.c.u.xXvXuX-X<XkXxX;X1X#XNXNXNXNXNXNXNX",
"NXNXNXNXNXs =X;X7Xi.i.i.l./.=X,.# 9 a NXNXNXNXNXNXNXNXNXNXNXNXNXNXNXNXNXNXNXNXNXNXNXNX7 Z.).[.cXzX,X_.J.gXkX>X8X0X#XNXNXNXNXNXNX",
"NXNXNXNXNXs $X-X:X4.s <.t./.<Xs.. q a NXNXNXNXNXNXNXNXNXNXNXNXNXNXNXNXNXNXNXNXNXNXNXNXNXH.>XrXxXuX,Xn.l.iXpX}.;XlX*XNXNXNXNXNXNX",
"NXNXNXNXNXw n.(.'.>.s ,.u.`.5XB.R 7 K NXNXNXNXNXNXNXNXNXNXNXNXNXNXNXNXNXNXNXNXNXNXNXNXNXH.4XtXpXeX'.l.3.iXpX}.K.lXsXNXNXNXNXNXNX",
"NXNXNXNXNX6 s.c.J.>.' *.r.Q.OXI.E 7 i NXNXNXNXNXNXNXNXNXNXNXNXNXNXNXNXNXNXNXNXNXNXNXNXNXG.7XtXeX{.J.<.8.tXeX>XJ.sXsXNXNXNXNXNXNX",
"NXNXNXNXNXNX` t.z.<.` / r.Q.+XXXO.R a NXNXNXNXNXNXNXNXNXNXNXNXNXNXNXNXNXNXNXNXNXNXNXNXNXj.7XuX[./.x.[ 8.eX).4X-X&X6XNXNXNXNXNXNX",
"NXNXNXNXNXNXt 1.3.<.y / r.Q.+XXXO.0 f NXNXNXNXNXNXNXNXNXNXNXNXNXNXNXNXNXNXNXNXNXNXNXNXNX..,X4X/.u.9.( f.Z.S.7XU.V.H.NXNXNXNXNXNX",
"NXNXNXNXNXNX+ i 1.` y / m.Q.+XXXY e = NXNXNXNXNXNXNXNXNXNXNXNXNXNXNXNXNXNXNXNXNXNXNXNXNX_ '.{.A.u.{ W 8.,.7.'.K.) V.NXNXNXNXNXNX",
"NXNXNXNXNXNXNX@ a t 8 t 5.Q.XXXX~ 8 NXNXNXNXNXNXNXNXNXNXNXNXNXNXNXNXNXNXNXNXNXNXNXNXNXNXNXP.^.q.5.{ % ( i *.S.f.q ..NXNXNXNXNXNX",
"NXNXNXNXNXNXNXNX@ 8 4 $ ;.M.M.o.W @ NXNXNXNXNXNXNXNXNXNXNXNXNXNXNXNXNXNXNXNXNXNXNXNXNXNXNX..S.F T Y O $ - u 3.' 2 NXNXNXNXNXNXNX",
"NXNXNXNXNXNXNXNXNX  + + t } o.R 2 NXNXNXNXNXNXNXNXNXNXNXNXNXNXNXNXNXNXNXNXNXNXNXNXNXNXNXNXNX] A , U NXO ; - a 5 NXNXNXNXNXNXNXNX",
"NXNXNXNXNXNXNXNXNXNXNXNX$ U U NXNXNXNXNXNXNXNXNXNXNXNXNXNXNXNXNXNXNXNXNXNXNXNXNXNXNXNXNXNXNXNXNXNXNXNXNXO O # NXNXNXNXNXNXNXNXNX",
"NXNXNXNXNXNXNXNXNXNXNXNXNX. NXNXNXNXNXNXNXNXNXNXNXNXNXNXNXNXNXNXNXNXNXNXNXNXNXNXNXNXNXNXNXNXNXNXNXNXNXNXNXNXNXNXNXNXNXNXNXNXNXNX"
};
