/* XPM */
static char *result[] = {
/* columns rows colors chars-per-pixel */
"64 64 227 2 ",
"   c #0B0B0C",
".  c #0E0E11",
"X  c #0C1619",
"o  c #151417",
"O  c #110F12",
"+  c #241C1A",
"@  c #0C1D24",
"#  c #131D28",
"$  c #0E252A",
"%  c #0E252A",
"&  c #17242B",
"*  c #0F2B32",
"=  c #0A2534",
"-  c #1D2E3E",
";  c #182834",
":  c #25242B",
">  c #392A2A",
",  c #2C2B33",
"<  c #292A35",
"1  c #312E3A",
"2  c #372B34",
"3  c #273239",
"4  c #343737",
"5  c #292123",
"6  c #4F1E1C",
"7  c #5C2B2B",
"8  c #493535",
"9  c #672329",
"0  c #752C28",
"q  c #6D2D33",
"w  c #394938",
"e  c #3D5439",
"r  c #59463A",
"t  c #4B4E3B",
"y  c #664939",
"u  c #74533A",
"i  c #704D3A",
"p  c #486C3D",
"a  c #192D43",
"s  c #1F3040",
"d  c #19354B",
"f  c #193857",
"g  c #09334A",
"h  c #173E66",
"j  c #233649",
"k  c #723B4E",
"l  c #563E53",
"z  c #364456",
"x  c #0A4465",
"c  c #1C446D",
"v  c #1C4066",
"b  c #184776",
"n  c #0A517B",
"m  c #0A4E74",
"M  c #375877",
"N  c #2D4E6C",
"B  c #574B5B",
"V  c #4E4E52",
"C  c #795947",
"Z  c #674456",
"A  c #685A56",
"S  c #734E53",
"D  c #4C7540",
"F  c #536C4D",
"G  c #736D53",
"H  c #555262",
"J  c #5A5664",
"K  c #5D5C66",
"L  c #4A5975",
"P  c #535C7A",
"I  c #445066",
"U  c #67596E",
"Y  c #516875",
"T  c #6A6775",
"R  c #707075",
"E  c #862925",
"W  c #8C322B",
"Q  c #983128",
"!  c #903630",
"~  c #AC352C",
"^  c #A5342A",
"/  c #B4362C",
"(  c #BB382D",
")  c #B8382D",
"_  c #A2322E",
"`  c #C43A2F",
"'  c #CB3B2F",
"]  c #CB3C30",
"[  c #C33A30",
"{  c #8E4A3A",
"}  c #A34939",
"|  c #916F30",
" . c #A57F2E",
".. c #963D52",
"X. c #8D3C4F",
"o. c #B93D53",
"O. c #AE394F",
"+. c #CC3D56",
"@. c #C53C54",
"#. c #D43F59",
"$. c #D23D57",
"%. c #8F5246",
"&. c #B65C53",
"*. c #B15150",
"=. c #8B6249",
"-. c #996B4B",
";. c #8C7155",
":. c #A77553",
">. c #B37C58",
",. c #AB6B52",
"<. c #91786F",
"1. c #825B70",
"2. c #D24A5C",
"3. c #C5675C",
"4. c #D5566D",
"5. c #D56168",
"6. c #548843",
"7. c #5C9948",
"8. c #7D9355",
"9. c #61A14B",
"0. c #B78C33",
"q. c #CB9A33",
"w. c #D5A131",
"e. c #938350",
"r. c #BB8359",
"t. c #AE9144",
"y. c #90867C",
"u. c #BD8564",
"i. c #AF8C71",
"p. c #A5B368",
"a. c #8DB063",
"s. c #C7895E",
"d. c #C88B62",
"f. c #D49364",
"g. c #DC9967",
"h. c #DB9868",
"j. c #C8956D",
"k. c #E49E6A",
"l. c #E89F6B",
"z. c #ECA36E",
"x. c #EDA570",
"c. c #F1A770",
"v. c #F4A971",
"b. c #F8AA73",
"n. c #F1A66F",
"m. c #B1DD7A",
"M. c #A9D375",
"N. c #154C83",
"B. c #095886",
"V. c #15579A",
"C. c #14568E",
"Z. c #235A8C",
"A. c #366892",
"S. c #165DA5",
"D. c #1661AD",
"F. c #1563B1",
"G. c #116199",
"H. c #476887",
"J. c #5A6788",
"K. c #577094",
"L. c #636F95",
"P. c #667798",
"I. c #6E7389",
"U. c #6B79A3",
"Y. c #707FA7",
"T. c #827C8B",
"R. c #DF798C",
"E. c #DC6B80",
"W. c #7A8698",
"Q. c #6F8197",
"!. c #6A85A6",
"~. c #7588A8",
"^. c #7992AC",
"/. c #7D94B3",
"(. c #7F95B8",
"). c #7490B3",
"_. c #888796",
"`. c #949896",
"'. c #8F8E93",
"]. c #B59681",
"[. c #9BA29A",
"{. c #AEA69A",
"}. c #9A95A6",
"|. c #829BB9",
" X c #8995A8",
".X c #A19AAC",
"XX c #87A1B9",
"oX c #97A8AC",
"OX c #B4B9AD",
"+X c #A8A4B5",
"@X c #B1B1B2",
"#X c #E38496",
"$X c #E595A5",
"%X c #C8BAB1",
"&X c #DFAE97",
"*X c #BFEF84",
"=X c #B9C4B4",
"-X c #CAC9BD",
";X c #869EC1",
":X c #89A5C4",
">X c #8EABCB",
",X c #8BA6C7",
"<X c #91AECE",
"1X c #95B1CE",
"2X c #BCB8C9",
"3X c #ABB5C9",
"4X c #C2BED0",
"5X c #EEBECB",
"6X c #B5CBD3",
"7X c #B4CEE0",
"8X c #C9D5C3",
"9X c #C9C5D7",
"0X c #CFD3D1",
"qX c #F0CCD6",
"wX c #DAE6D3",
"eX c #DDDAED",
"rX c #D7D4E7",
"tX c #CED3E1",
"yX c #F2D9E2",
"uX c #F2D7E0",
"iX c #E1DEF1",
"pX c #E0DCEF",
"aX c #CCE3E9",
"sX c #E3E0F4",
"dX c #EEF2ED",
"fX c #E4F1DD",
"gX c None",
/* pixels */
"gXgXgXgXgXgXgXgXgXgXgXgXgXgXgXgXgXgX: < : , , , , < , : gXgXgXgXgXgXgXgXgXgXgXgXgXgXgXgXgXgXgXgXgXgXgXgXgXgXgXgXgXgXgXgXgXgXgXgX",
"gXgXgXgXgXgXgXgXgXgXgXgXgXgXQ Q 2 1 1 4 w p D D p w 4 , 4 9 ^ Q gXgXgXgXgXgXgXgXgXgXgXgXgXgXgXgXgXgXgXgXgXgXgXgXgXgXgXgXgXgXgXgX",
"gXgXgXgXgXgXgXgXgXgXgX^ ) ` ] ) > , e 6.7.D D p 6.7.6.4 1 0 ' ] ( ~ E gX:.s.f.f.f.f.g.g.g.g.h.f.f.f.f.s.u.p.m.*X8.: , < gXgXgXgX",
"gXgXgXgXgXgXgXgXgXgX~ ] ] ] ] ( 8 4 6.7.e 4 t e w 6.9.p , W ' ' ] ] ` _ d.v.v.v.v.v.v.v.v.v.v.v.v.v.v.v.v.h.p.*Xm.F 4 1 1 1 : gX",
"gXgXgXgXgXgXgXgXgXE ` ] ] ] ] ' q 4 e e , p 9.6.4 w t w , ^ ' ' ' ' ' / { x.v.v.v.v.n.n.c.c.c.c.z.z.z.g.h.f.p.*Xm.V 1 1 1 1 , gX",
"gXgXgXgXgXgXgXgXgXQ ] ] ] ] ] ] ) 9 1 1 1 4 w w , , , 1 0 ` ' ' ' ' ' _ { h.k.f.d.s.s.s.s.gXgXgXgXgXgXgXgX8.p.a.p 1 1 1 1 1 1 : ",
"gXgXgXgXgXgXgXgXgX^ ] ] ] ] ` ` ` ) W 7 > 2 > 4 2 2 7 ! } ' ' ' ' ' [ E y -.gXgXgXgXgXgXgXgXgXgXgXgXgXgXgXgXgXgX5 1 4 4 8 8 2 : ",
"gXgXgXgXgXgXgXgXgX^ ] ( ) / / ) / / ( ) / / / ) ^ ^ / ) ` ) ) ) [ [ _ 0 6 gXgXgXgXgXgXgXgXgXgXgXgXgXgXgXgXgXgXgXgXgXy =.C -.gXgX",
"gXgXgXgXgX$ % % % 9 ~ ) ( ` ' ' ] ] ] ] ] ] ' ' ] ' ] ] ] ' ' ` ( ~ E 9 + gXgXgXgXgXgXgXgXgXgXgXgXgXgXgXgXgXgXgXgXgXgXgXgXgXgXgX",
"gXgXgXgX@ % * * * + 6 Q ) ` ` ' ] ] ] ] ] ] ' ' ] ' ' ' ] ] ] ] [ ~ 9 : * * % % % gXgXgXgXgXgXgXgXgXgXgXgXgXgXgXgXgXgXgXgXgXgXgX",
"gXgXgX% * * * * * $ X y =.{ q 0 0 W } W E E E E E W _ ! ! ! _ %.%.=.& = * * * * * * % $ gXgXgXgXgXgXgXgXgXgXgXgXgXgXgXgXgXgXgXgX",
"gX% % * * * * * * $ r >.>.y.=XOXR A y : 5 O     + y C A `.0X%X:.f.k.r ; & X X X X X gXgXgXgXgXgXgXgXgXgXgXgXgXgXgXgXgXgXgXgXgXgX",
"gXgX% % $ @ @ % t u u z.u.9XdX8X'.&X:.:.y X o r :.>.u.-X`.pXdX{.l.k.u :.i         gXgXgXgXgXgXgXgXgXgXgXgXgXgXgXgXgXgXgXgXgXgXgX",
"gXgXgX        o s.s.=.g.j.0XdX@Xw %Xx.k.t r s.n.z.n.&X@XV wXdXOXl.>.:.f.|       gXgXgXgXgXgXgXgXgXgXgXgXgXgXgXgXgXgXgXgXgXgXgXgX",
"gXgXgXV '.R 3 o -.z.:.r.z.{.qX{.t &Xv.z.s.n.z.n.v.v.&X&XZ %X8X].k.>.>.s.8   gXgXgXgXgXgXgXgXgXgXgXgXgXgXgXgXgXgXgXgXgXgXgXgXgXgX",
"gXgXgXR 6XaX6XW.K ;.-.=.n.g.r.3.g.z.n.z.n.z.r.g.z.z.v.b.f.:.>.z.>.u u +   gXgXgXgXgXgXgXgXgXgXgXgXgXgXgXgXgXgXgXgXgXgXgXgXgXgXgX",
"gXgXgXgX6XaXaXaX7XXXQ.V j.n.f.g.c.c.-.%.*.*.&.*.*.{ %.n.n.l.z.h.J h = gXgXgXgXgXgXgXgXgXgXgXgXgXgXgXgXgXgXgXgXgXgXgXgXgXgXgXgXgX",
"gXgXgXoXaX7X6X@X(.).!.Q.Q.i.j.g.z.v.d.&.3.5.5.3.3.*.s.n.k.s.;.L S.S.gXgXgXgXgXgXgXgXgXgXgXgXgXgXgXgXgXgXgXgXgXgXgXgXgXgXgXgXgXgX",
"gXgXgXgXY Y v j d f v v N Y Q._.`.i.j.u.,.&.3.3.,.>.j.y.K N V.F.F.n gXgXgXgXgXgXgXgXgXgXgXgXgXgXgXgXgXgXgXgXgXgXgXgXgXgXgXgXgXgX",
"gXgXgXgX* - - - 3 - - - ; - d N H.P./. X X<.A q r K P.M b D.D.F.V.gXgXgXgXgXgXgXgXgXgXgXgXgXgXgXgXgXgXgXgXgXgXgXgXgXgXgXgXgXgXgX",
"gXgXgXgX; s 3 s s s s s s s s - - f N M H.P.P.I 3 z N b N.D.F.D.N.g gXgXgXgXgXgXgXgXgXgXgXgXgXgXgXgXgXgXgXgXgXgXgXgXgXgXgXgXgXgX",
"gXgXgXgX; ; ; s s s s s s s s s - a b N.N.b N b N.V 0.L N.D.F.D.S.h gXgXgXgXgXgXgXgXgXgXgXgXgXgXgXgXgXgXgXgXgXgXgXgXgXgXgXgXgXgX",
"gXgXgXgXgX# s s s s s s - s s s - a a b S.F.D.D.S.M F N.S.F.F.F.V.N.V.gXgXgXgXgXgXgXgXgXgXgXgXgXgXgXgXgXgXgXgXgXgXgXgXgXgXgXgXgX",
"gXgXgXgXgXgX- s s s s - - a s s - 3 3 a f V.F.F.S.S.S.F.F.F.F.G.N.V.D.N.gXgXgXgXgXgXgXgXgXgXgXgXgXgXgXgXgXgXgXgXgXgXgXgXgXgXgXgX",
"gXgXgXgXgXgXgX- 3 3 s a 4 V C =.=.C S 8 & a N.F.F.F.F.F.F.V.c M V.D.S.V.S.V.G 0.gXgXgXgXgXgXgXgXgXgXgXgXgXgXgXgXgXgXgXgXgXgXgXgX",
"gXgXgXgXgXgXgX; a a ; : =.>.3.d.u.u.u.:.> O ; V.F.F.D.V.b Y oXoXC.C.S.F.A.t.q.'.XX(./.!.gXgXgXgXgXgXgXgXgXgXgXgXgXgXgXgXgXgXgXgX",
"gXgXgXgXgXgXgX& - & o O 8 s.z.n.x.x.z.k.s.> h V.C.b v d W.7X7X^.b S.F.A.q.q.y.:X1X<X<X>X<X:X|.|.^.gXgXgXgXgXgXgXgXgXgXgXgXgXgXgX",
"gXgXgXgXgXgXgXgXo o O O   y z.v.c.v.v.v.n.s.z f f f v J.3X1X1XH.S.F.H.q.q.y.>X<X<X<X<X<X<X<X1X<X<X^.XXXX^.~.gXgXgXgXgXgXgXgXgXgX",
"gXgXgXgXgXgXgXgXgXa f d a a S k.v.v.v.c.v.b.u.V M K.~.,X<X1X^.G.D.Y q.q.8.<X<X<X<X<X<X<X<X1X<X>X/.|.<X<X<X<X>X!.gXgXgXgXgXgXgXgX",
"gXgXgXgXgXgXgXgXgXd c c c h v A k.v.v.c.c.v.v.f.y.|.<X1X>X).D.A.e.w.>.J.).<X<X<X<X<X<X<X<X>X1XXX/.<X<X<X1X>X>X>XI.gXgXgXgXgXgXgX",
"gXgXgXgXgXgXgXgXgXgXh c c c c v A z.b.v.v.v.v.b.n.d.y.K.A.Y e.0.q.G L.U.).>X<X<X<X<X<X<X<X<X:X^.<X<X<X<X<X<X<X1X/.gXgXgXgXgXgXgX",
"gXgXgXgXgXgXgXgXgXgXh N.b b c c c A f.v.v.c.v.v.b.b.k.<.G 0.0.G L.U.U.U.U.).(.;X,X>X<X<X<X>X^.:X1X<X<X<X<X<X<X<X,XgXgXgXgXgXgXgX",
"gXgXgXgXgXgXgXgXgXgXgXF F I M M N N B >.z.l.f.d.3.&.&.*.%.! k k Z U J.L.L.L.U.U.U.Y.|.;X,X X;X<X<X<X<X<X<X<X<X;X~.gXgXgXgXgXgXgX",
"gXgXgXgXgXgXgXgXgXgXgXgXu ;.-.|  .e.0.| %.*.o.@.2.+.$.$.$.#.$.$.$.$.o.O...k l L J.L.L.L.J.U.|.;X;X;X;X;X|.^.P.P gXgXgXgXgXgXgXgX",
"gXgXgXgXgXgXgXgXgXgXgXgXgXJ.J.J.J.Z X.o.2.#.#.#.2.+.#.#.$.$.2.$.#.#.#.#.$.$.o.X.l P J.J.L J.L.L.U.U.L.J.L gXgXgXgXgXgXgXgXgXgXgX",
"gXgXgXgXgXgXgXgXgXgXgXgXgXR ^.I.%.4.$X5X5X5X4.#.#.$.#.#.#.#.$.$.#.#.#.#.$.$.$.$.+...l z I U I.T.U B gXgXgXgXgXgXgXgXgXgXgXgXgXgX",
"gXgXgXgXgXgXgXgXgXgXgXgXgXP 1.o.R.qXyXyXyXyXR.#.#.#.#.#.2.$.$.$.#.#.#.#.$.#.#.#.#.#.o.q , r -.u i gXgXgXgXgXgXgXgXgXgXgXgXgXgXgX",
"gXgXgXgXgXgXgXgXgXgXgXgXgXq +.#XiXyXyXyXyXqX4.#.#.#.+.@.o.o.@.$.#.#.#.#.$.#.#.#.#.#.#.$.q & - : gX-.:.:.gXgXgXgXgXgXgXgXgXgXgXgX",
"gXgXgXgXgXgXgXgXgXgXgXgX9 @.4.qXyXyXyXyXqXR.#.$.O.%.Z Z V Z V Z X.o.2.#.#.#.$.+.@.o.O.O...> : C f.s.s.r.=.gXgXgXgXgXgXgXgXgXgXgX",
"gXgXgXgXgXgXgXgXgXgXgXgXO.#.E.qXyXyXyX5XR.#.@.k I H R `.[.[.'.R H H X.O.....Z k Z J J K K B > :.>.:.gXgXgXgXgXgXgXgXgXgXgXgXgXgX",
"gXgXgXgXgXgXgXgXgXgXgX9 +.#.#.E.$X$XR.4.$.+.k B J OX-X-XwX8X=X=X}.H H B J U I.'..X+X4X4X9X9XA u gXgXgXgXgXgXgXgXgXgXgXgXgXgXgXgX",
"gXgXgXgXgXgXgXgXgXgXgXq +.#.#.+.$.$.#.#.#.o.l H _.fX=XfXfXfXwX[.wXR H J 2XrXpXiXiXiXsXiXiXeXT gXgXgXgXgXgXgXgXgXgXgXgXgXgXgXgXgX",
"gXgXgXgXgXgXgXgXgXgXgX9 +.#.#.#.$.@.o...S k B I T 8X8X0X8X-X=X=X8XK I R pXiXiXiXiXiXiXiXiX9XB gXgXgXgXgXgXgXgXgXgXgXgXgXgXgXgXgX",
"gXgXgXgXgXgXgXgXgXgXgXgXO.+.o...k k H J T T._.U H R [.OX=X=XOX`.K B T 4XiXiXiXiXiXiXiXiXeX'.gXgXgXgXgXgXgXgXgXgXgXgXgXgXgXgXgXgX",
"gXgXgXgXgXgXgXgXgXgXgXgX7 Z B U I.}.+X4XrXpXiX9X'.T H J K K J J T }.tXiXiXiXiXiXiXiXpXrX.XA gXgXgXgXgXgXgXgXgXgXgXgXgXgXgXgXgXgX",
"gXgXgXgXgXgXgXgXgXgXgXgXgXB +X4XrXiXiXiXpXpXiXiXiXtX4X+X+X+X+X9XrXiXiXiXiXiXiXiXiXrX4X.XT gXgXgXgXgXgXgXgXgXgXgXgXgXgXgXgXgXgXgX",
"gXgXgXgXgXgXgXgXgXgXgXgXgXgX+XpXpXpXiXiXpXpXeXrXeXeXpXiXsXsXsXsXiXsXsXiXpXeXtX4X3X+X}.T gXgXgXgXgXgXgXgXgXgXgXgXgXgXgXgXgXgXgXgX",
"gXgXgXgXgXgXgXgXgXgXgXgXgXgXgXT.4XpXiXpX4X3X+X+X+X+X+X2X2X9X9X9X9X9X9X2X3X+X.X.X}.T.J gXgXgXgXgXgXgXgXgXgXgXgXgXgXgXgXgXgXgXgXgX",
"gXgXgXgXgXgXgXgXgXgXgXgXgXgXgXgXV  X2X2X}..X.X.X.X.X.X}..X.X.X.X.X.X.X.X.X.X}._.T gXgXgXgXgXgXgXgXgXgXgXgXgXgXgXgXgXgXgXgXgXgXgX",
"gXgXgXgXgXgXgXgXgXgXgXgXgXgXgXgXgXQ.|.W.I._.`..X.X.X.X.X.X.X.X.X.X.X.X}.'.I.gXgXgXgXgXgXgXgXgXgXgXgXgXgXgXgXgXgXgXgXgXgXgXgXgXgX",
"gXgXgXgXgXgXgXgXgXgXgXgXgXgXgXgXgXJ.>X<X>X|.~.W.W._.T._._._.T._.R R gXgXgXgXgXgXgXgXgXgXgXgXgXgXgXgXgXgXgXgXgXgXgXgXgXgXgXgXgXgX",
"gXgXgXgXgXgXgXgXgXgXgXgXgXgXgXgXgXgX|.1X1X1X1X<X,X,X:X;XXX^.gXgXgXgXgXgXgXgXgXgXgXgXgXgXgXgXgXgXgXgXgXgXgXgXgXgXgXgXgXgXgXgXgXgX",
"gXgXgXgXgXgXgXgXgXgXgXgXgXgXgXgXgXgXP.<X<X<X<X<X<X<X<X<X<X>XgXgXgXgXgXgXgXgXgXgXgXgXgXgXgXgXgXgXgXgXgXgXgXgXgXgXgXgXgXgXgXgXgXgX",
"gXgXgXgXgXgXgXgXgXgXgXgXgXgXgXgXgXgXgX>X,X,X<X<X<X<X<X<X<X<XP.gXgXgXgXgXgXgXgXgXgXgXgXgXgXgXgXgXgXgXgXgXgXgXgXgXgXgXgXgXgXgXgXgX",
"gXgXgXgXgXgXgXgXgXgXgXgXgXgXgXgXgXgXgX(.(.Y.~.;X>X<X<X<X<X<X;XgXgXgXgXgXgXgXgXgXgXgXgXgXgXgXgXgXgXgXgXgXgXgXgXgXgXgXgXgXgXgXgXgX",
"gXgXgXgXgXgXgXgXgXgXgXgXgXgXgXgXgXgXz U.(.Y.L.K.P.~.(.:X>X,XY.gXgXgXgXgXgXgXgXgXgXgXgXgXgXgXgXgXgXgXgXgXgXgXgXgXgXgXgXgXgXgXgXgX",
"gXgXgXgXgXgXgXgXgXgXgXgXgXgXgXgXgXgXgXL J.L.U.U.U.L.U.Y.!.J.j gXgXgXgXgXgXgXgXgXgXgXgXgXgXgXgXgXgXgXgXgXgXgXgXgXgXgXgXgXgXgXgXgX",
"gXgXgXgXgXgXgXgXgXgXgXgXgXgXgXgXgXgXgXgXgXd z I P P P z < * g gXgXgXgXgXgXgXgXgXgXgXgXgXgXgXgXgXgXgXgXgXgXgXgXgXgXgXgXgXgXgXgXgX",
"gXgXgXgXgXgXgXgXgXgXgXgXgXgXgXgXgXgXgXgXgXg g     . .     @ g gXgXgXgXgXgXgXgXgXgXgXgXgXgXgXgXgXgXgXgXgXgXgXgXgXgXgXgXgXgXgXgXgX",
"gXgXgXgXgXgXgXgXgXgXgXgXgXgXgXgXgXgXgXgXgXg x $ @ = = = @ g n g gXgXgXgXgXgXgXgXgXgXgXgXgXgXgXgXgXgXgXgXgXgXgXgXgXgXgXgXgXgXgXgX",
"gXgXgXgXgXgXgXgXgXgXgXgXgXgXgXgXgXgXgXgXgXx G.m g ; = = * f G.x gXgXgXgXgXgXgXgXgXgXgXgXgXgXgXgXgXgXgXgXgXgXgXgXgXgXgXgXgXgXgXgX",
"gXgXgXgXgXgXgXgXgXgXgXgXgXgXgXgXgXgXgXgXgXgXB.B.d s - 3 s x G.x gXgXgXgXgXgXgXgXgXgXgXgXgXgXgXgXgXgXgXgXgXgXgXgXgXgXgXgXgXgXgXgX",
"gXgXgXgXgXgXgXgXgXgXgXgXgXgXgXgXgXgXgXgXgXgXgXB.B.B.n n C.G.n gXgXgXgXgXgXgXgXgXgXgXgXgXgXgXgXgXgXgXgXgXgXgXgXgXgXgXgXgXgXgXgXgX",
"gXgXgXgXgXgXgXgXgXgXgXgXgXgXgXgXgXgXgXgXgXgXgXgXh n B.B.n x gXgXgXgXgXgXgXgXgXgXgXgXgXgXgXgXgXgXgXgXgXgXgXgXgXgXgXgXgXgXgXgXgXgX"
};
